Geologisk-BlackItalic.ufo
<glyph name="parenleft" format="2">
  <advance width="756"/>
  <unicode hex="0028"/>
  <guideline x="214" y="385" angle="198.3332"/>
  <guideline x="403" y="1305" angle="338.8831"/>
  <outline>
    <contour>
      <point x="208" y="-230" type="curve"/>
      <point x="532" y="-122" type="line"/>
      <point x="480" y="20"/>
      <point x="456" y="178"/>
      <point x="456" y="342" type="curve" smooth="yes"/>
      <point x="456" y="758"/>
      <point x="618" y="1198"/>
      <point x="894" y="1492" type="curve"/>
      <point x="586" y="1610" type="line"/>
      <point x="282" y="1248"/>
      <point x="106" y="816"/>
      <point x="106" y="358" type="curve" smooth="yes"/>
      <point x="106" y="160"/>
      <point x="138" y="-36"/>
    </contour>
  </outline>
</glyph>
<glyph name="period" format="2">
  <advance width="609"/>
  <unicode hex="002E"/>
  <outline>
    <contour>
      <point x="216" y="-30" type="curve" smooth="yes"/>
      <point x="348" y="-30"/>
      <point x="472" y="62"/>
      <point x="472" y="218" type="curve" smooth="yes"/>
      <point x="472" y="342"/>
      <point x="378" y="416"/>
      <point x="256" y="416" type="curve" smooth="yes"/>
      <point x="124" y="416"/>
      <point x="-2" y="324"/>
      <point x="-2" y="166" type="curve" smooth="yes"/>
      <point x="-2" y="46"/>
      <point x="94" y="-30"/>
    </contour>
  </outline>
</glyph>
<glyph name="one" format="2">
  <advance width="1014"/>
  <unicode hex="0031"/>
  <guideline x="107" y="429" angle="106.9719"/>
  <outline>
    <contour>
      <point x="338" y="0" type="line"/>
      <point x="706" y="0" type="line"/>
      <point x="1010" y="1430" type="line"/>
      <point x="982" y="1430" type="line"/>
      <point x="140" y="1166" type="line"/>
      <point x="234" y="858" type="line"/>
      <point x="542" y="952" type="line"/>
    </contour>
  </outline>
</glyph>
<glyph name="four" format="2">
  <advance width="1206"/>
  <unicode hex="0034"/>
  <outline>
    <contour>
      <point x="554" y="0" type="line"/>
      <point x="882" y="0" type="line"/>
      <point x="934" y="246" type="line"/>
      <point x="1108" y="246" type="line"/>
      <point x="1176" y="564" type="line"/>
      <point x="1002" y="564" type="line"/>
      <point x="1054" y="812" type="line"/>
      <point x="726" y="812" type="line"/>
      <point x="674" y="564" type="line"/>
      <point x="456" y="564" type="line"/>
      <point x="1000" y="1400" type="line"/>
      <point x="592" y="1400" type="line"/>
      <point x="22" y="524" type="line"/>
      <point x="-38" y="246" type="line"/>
      <point x="606" y="246" type="line"/>
    </contour>
  </outline>
</glyph>
<glyph name="six" format="2">
  <advance width="1318"/>
  <unicode hex="0036"/>
  <guideline x="211" y="505" angle="0"/>
  <outline>
    <contour>
      <point x="632" y="-30" type="curve" smooth="yes"/>
      <point x="954" y="-30"/>
      <point x="1220" y="200"/>
      <point x="1220" y="488" type="curve" smooth="yes"/>
      <point x="1220" y="724"/>
      <point x="1028" y="914"/>
      <point x="736" y="914" type="curve" smooth="yes"/>
      <point x="698" y="914"/>
      <point x="654" y="908"/>
      <point x="614" y="892" type="curve"/>
      <point x="756" y="1010"/>
      <point x="970" y="1086"/>
      <point x="1276" y="1138" type="curve"/>
      <point x="1204" y="1430" type="line"/>
      <point x="632" y="1374"/>
      <point x="86" y="1028"/>
      <point x="86" y="506" type="curve" smooth="yes"/>
      <point x="86" y="192"/>
      <point x="308" y="-30"/>
    </contour>
    <contour>
      <point x="642" y="286" type="curve" smooth="yes"/>
      <point x="538" y="286"/>
      <point x="466" y="352"/>
      <point x="466" y="438" type="curve" smooth="yes"/>
      <point x="466" y="544"/>
      <point x="558" y="618"/>
      <point x="668" y="618" type="curve" smooth="yes"/>
      <point x="772" y="618"/>
      <point x="842" y="552"/>
      <point x="842" y="468" type="curve" smooth="yes"/>
      <point x="842" y="360"/>
      <point x="752" y="286"/>
    </contour>
  </outline>
</glyph>
<glyph name="nine" format="2">
  <advance width="1298"/>
  <unicode hex="0039"/>
  <outline>
    <contour>
      <point x="142" y="-30" type="line"/>
      <point x="714" y="27"/>
      <point x="1260" y="377"/>
      <point x="1260" y="906" type="curve" smooth="yes"/>
      <point x="1260" y="1213"/>
      <point x="1038" y="1430"/>
      <point x="714" y="1430" type="curve" smooth="yes"/>
      <point x="398" y="1430"/>
      <point x="150" y="1217"/>
      <point x="150" y="936" type="curve" smooth="yes"/>
      <point x="150" y="700"/>
      <point x="337" y="510"/>
      <point x="622" y="510" type="curve" smooth="yes"/>
      <point x="656" y="510"/>
      <point x="696" y="516"/>
      <point x="732" y="532" type="curve"/>
      <point x="590" y="402"/>
      <point x="376" y="319"/>
      <point x="70" y="262" type="curve"/>
    </contour>
    <contour>
      <point x="690" y="806" type="curve" smooth="yes"/>
      <point x="593" y="806"/>
      <point x="528" y="867"/>
      <point x="528" y="944" type="curve" smooth="yes"/>
      <point x="528" y="1045"/>
      <point x="613" y="1114"/>
      <point x="716" y="1114" type="curve" smooth="yes"/>
      <point x="813" y="1114"/>
      <point x="880" y="1053"/>
      <point x="880" y="974" type="curve" smooth="yes"/>
      <point x="880" y="875"/>
      <point x="794" y="806"/>
    </contour>
  </outline>
</glyph>
<glyph name="semicolon" format="2">
  <advance width="677"/>
  <unicode hex="003B"/>
  <outline>
    <contour>
      <point x="390" y="634" type="curve" smooth="yes"/>
      <point x="522" y="634"/>
      <point x="648" y="728"/>
      <point x="648" y="884" type="curve" smooth="yes"/>
      <point x="648" y="1006"/>
      <point x="550" y="1080"/>
      <point x="428" y="1080" type="curve" smooth="yes"/>
      <point x="282" y="1080"/>
      <point x="172" y="968"/>
      <point x="172" y="830" type="curve" smooth="yes"/>
      <point x="172" y="710"/>
      <point x="270" y="634"/>
    </contour>
    <contour>
      <point x="-11" y="-396" type="line"/>
      <point x="267" y="-259"/>
      <point x="514" y="-69"/>
      <point x="514" y="179" type="curve" smooth="yes"/>
      <point x="514" y="323"/>
      <point x="419" y="416"/>
      <point x="275" y="416" type="curve" smooth="yes"/>
      <point x="136" y="416"/>
      <point x="31" y="315"/>
      <point x="31" y="181" type="curve" smooth="yes"/>
      <point x="31" y="67"/>
      <point x="121" y="-7"/>
      <point x="244" y="-12" type="curve"/>
      <point x="186" y="-99"/>
      <point x="61" y="-177"/>
      <point x="-88" y="-238" type="curve"/>
    </contour>
  </outline>
</glyph>
<glyph name="less" format="2">
  <advance width="1297"/>
  <unicode hex="003C"/>
  <outline>
    <contour>
      <point x="1065" y="76" type="line"/>
      <point x="1171" y="330" type="line"/>
      <point x="509" y="618" type="line"/>
      <point x="1347" y="934" type="line"/>
      <point x="1253" y="1188" type="line"/>
      <point x="121" y="770" type="line"/>
      <point x="65" y="500" type="line"/>
    </contour>
  </outline>
</glyph>
<glyph name="greater" format="2">
  <advance width="1297"/>
  <unicode hex="003E"/>
  <guideline x="42" y="465" angle="68.4372"/>
  <guideline x="112" y="528" angle="67.035"/>
  <guideline x="23" y="99" angle="110.3205"/>
  <outline>
    <contour>
      <point x="91" y="76" type="line"/>
      <point x="1223" y="494" type="line"/>
      <point x="1279" y="764" type="line"/>
      <point x="279" y="1188" type="line"/>
      <point x="173" y="934" type="line"/>
      <point x="835" y="646" type="line"/>
      <point x="-3" y="330" type="line"/>
    </contour>
  </outline>
</glyph>
<glyph name="question" format="2">
  <advance width="1066"/>
  <unicode hex="003F"/>
  <outline>
    <contour>
      <point x="306" y="524" type="curve"/>
      <point x="662" y="524" type="line"/>
      <point x="684" y="648"/>
      <point x="726" y="698"/>
      <point x="826" y="752" type="curve" smooth="yes"/>
      <point x="1000" y="846"/>
      <point x="1106" y="922"/>
      <point x="1106" y="1088" type="curve" smooth="yes"/>
      <point x="1106" y="1282"/>
      <point x="902" y="1430"/>
      <point x="626" y="1430" type="curve" smooth="yes"/>
      <point x="468" y="1430"/>
      <point x="326" y="1388"/>
      <point x="234" y="1342" type="curve"/>
      <point x="240" y="1010" type="line"/>
      <point x="330" y="1052"/>
      <point x="404" y="1064"/>
      <point x="484" y="1064" type="curve" smooth="yes"/>
      <point x="580" y="1064"/>
      <point x="624" y="1030"/>
      <point x="624" y="982" type="curve" smooth="yes"/>
      <point x="624" y="938"/>
      <point x="590" y="914"/>
      <point x="476" y="842" type="curve" smooth="yes"/>
      <point x="388" y="786"/>
      <point x="308" y="734"/>
    </contour>
    <contour>
      <point x="414" y="-30" type="curve" smooth="yes"/>
      <point x="554" y="-30"/>
      <point x="672" y="76"/>
      <point x="672" y="214" type="curve" smooth="yes"/>
      <point x="672" y="340"/>
      <point x="588" y="416"/>
      <point x="458" y="416" type="curve" smooth="yes"/>
      <point x="318" y="416"/>
      <point x="200" y="310"/>
      <point x="200" y="170" type="curve" smooth="yes"/>
      <point x="200" y="44"/>
      <point x="286" y="-30"/>
    </contour>
  </outline>
</glyph>
<glyph name="C" format="2">
  <advance width="1418"/>
  <unicode hex="0043"/>
  <guideline x="470" y="700" angle="81"/>
  <anchor x="701" y="0" name="bottom"/>
  <anchor x="927" y="1400" name="top"/>
  <outline>
    <contour>
      <point x="803" y="-30" type="curve" smooth="yes"/>
      <point x="1007" y="-30"/>
      <point x="1173" y="22"/>
      <point x="1299" y="102" type="curve"/>
      <point x="1185" y="454" type="line"/>
      <point x="1079" y="390"/>
      <point x="963" y="364"/>
      <point x="865" y="364" type="curve" smooth="yes"/>
      <point x="659" y="364"/>
      <point x="545" y="470"/>
      <point x="545" y="642" type="curve" smooth="yes"/>
      <point x="545" y="868"/>
      <point x="683" y="1036"/>
      <point x="909" y="1036" type="curve" smooth="yes"/>
      <point x="1041" y="1036"/>
      <point x="1151" y="990"/>
      <point x="1211" y="902" type="curve"/>
      <point x="1467" y="1214" type="line"/>
      <point x="1323" y="1368"/>
      <point x="1167" y="1430"/>
      <point x="927" y="1430" type="curve" smooth="yes"/>
      <point x="471" y="1430"/>
      <point x="115" y="1062"/>
      <point x="115" y="586" type="curve" smooth="yes"/>
      <point x="115" y="196"/>
      <point x="409" y="-30"/>
    </contour>
  </outline>
</glyph>
<glyph name="D" format="2">
  <advance width="1491"/>
  <unicode hex="0044"/>
  <anchor x="482" y="712" name="bar"/>
  <anchor x="912" y="1400" name="top"/>
  <outline>
    <contour>
      <point x="48" y="0" type="line"/>
      <point x="650" y="0" type="line" smooth="yes"/>
      <point x="1122" y="0"/>
      <point x="1458" y="336"/>
      <point x="1458" y="788" type="curve" smooth="yes"/>
      <point x="1458" y="1182"/>
      <point x="1158" y="1400"/>
      <point x="738" y="1400" type="curve" smooth="yes"/>
      <point x="344" y="1400" type="line"/>
    </contour>
    <contour>
      <point x="532" y="376" type="line"/>
      <point x="668" y="1024" type="line"/>
      <point x="718" y="1024" type="line" smooth="yes"/>
      <point x="906" y="1024"/>
      <point x="1032" y="936"/>
      <point x="1032" y="754" type="curve" smooth="yes"/>
      <point x="1032" y="532"/>
      <point x="898" y="376"/>
      <point x="672" y="376" type="curve" smooth="yes"/>
    </contour>
  </outline>
</glyph>
<glyph name="E" format="2">
  <advance width="1308"/>
  <unicode hex="0045"/>
  <anchor x="562" y="0" name="bottom"/>
  <anchor x="1094" y="0" name="ogonek"/>
  <anchor x="858" y="1400" name="top"/>
  <anchor x="228" y="1400" name="topleft"/>
  <outline>
    <contour>
      <point x="48" y="0" type="line"/>
      <point x="1094" y="0" type="line"/>
      <point x="1168" y="352" type="line"/>
      <point x="526" y="352" type="line"/>
      <point x="568" y="552" type="line"/>
      <point x="1088" y="552" type="line"/>
      <point x="1156" y="870" type="line"/>
      <point x="636" y="870" type="line"/>
      <point x="674" y="1052" type="line"/>
      <point x="1308" y="1052" type="line"/>
      <point x="1382" y="1400" type="line"/>
      <point x="344" y="1400" type="line"/>
    </contour>
  </outline>
</glyph>
<glyph name="G" format="2">
  <advance width="1543"/>
  <unicode hex="0047"/>
  <anchor x="796" y="0" name="bottom"/>
  <anchor x="960" y="1400" name="top"/>
  <outline>
    <contour>
      <point x="856" y="-30" type="curve" smooth="yes"/>
      <point x="994" y="-30"/>
      <point x="1166" y="-4"/>
      <point x="1294" y="44" type="curve"/>
      <point x="1464" y="838" type="line"/>
      <point x="848" y="838" type="line"/>
      <point x="780" y="522" type="line"/>
      <point x="1046" y="522" type="line"/>
      <point x="1004" y="328" type="line"/>
      <point x="972" y="322"/>
      <point x="942" y="320"/>
      <point x="912" y="320" type="curve" smooth="yes"/>
      <point x="706" y="320"/>
      <point x="538" y="428"/>
      <point x="538" y="642" type="curve" smooth="yes"/>
      <point x="538" y="892"/>
      <point x="702" y="1068"/>
      <point x="966" y="1068" type="curve" smooth="yes"/>
      <point x="1102" y="1068"/>
      <point x="1206" y="1034"/>
      <point x="1296" y="962" type="curve"/>
      <point x="1518" y="1256" type="line"/>
      <point x="1332" y="1403"/>
      <point x="1128" y="1430"/>
      <point x="970" y="1430" type="curve" smooth="yes"/>
      <point x="494" y="1430"/>
      <point x="120" y="1084"/>
      <point x="120" y="618" type="curve" smooth="yes"/>
      <point x="120" y="216"/>
      <point x="446" y="-30"/>
    </contour>
  </outline>
</glyph>
<glyph name="H" format="2">
  <advance width="1592"/>
  <unicode hex="0048"/>
  <anchor x="982" y="1400" name="top"/>
  <anchor x="228" y="1400" name="topleft"/>
  <outline>
    <contour>
      <point x="48" y="0" type="line"/>
      <point x="452" y="0" type="line"/>
      <point x="566" y="538" type="line"/>
      <point x="1034" y="538" type="line"/>
      <point x="920" y="0" type="line"/>
      <point x="1324" y="0" type="line"/>
      <point x="1620" y="1400" type="line"/>
      <point x="1216" y="1400" type="line"/>
      <point x="1112" y="906" type="line"/>
      <point x="644" y="906" type="line"/>
      <point x="748" y="1400" type="line"/>
      <point x="344" y="1400" type="line"/>
    </contour>
  </outline>
</glyph>
<glyph name="I" format="2">
  <advance width="720"/>
  <unicode hex="0049"/>
  <anchor x="250" y="0" name="bottom"/>
  <anchor x="452" y="0" name="ogonek"/>
  <anchor x="546" y="1400" name="top"/>
  <anchor x="228" y="1400" name="topleft"/>
  <outline>
    <contour>
      <point x="48" y="0" type="line"/>
      <point x="452" y="0" type="line"/>
      <point x="748" y="1400" type="line"/>
      <point x="344" y="1400" type="line"/>
    </contour>
  </outline>
</glyph>
<glyph name="J" format="2">
  <advance width="1094"/>
  <unicode hex="004A"/>
  <anchor x="924" y="1400" name="top"/>
  <outline>
    <contour>
      <point x="358" y="-30" type="curve" smooth="yes"/>
      <point x="664" y="-30"/>
      <point x="860" y="154"/>
      <point x="924" y="448" type="curve" smooth="yes"/>
      <point x="1126" y="1400" type="line"/>
      <point x="722" y="1400" type="line"/>
      <point x="538" y="538" type="line" smooth="yes"/>
      <point x="508" y="398"/>
      <point x="430" y="338"/>
      <point x="328" y="338" type="curve" smooth="yes"/>
      <point x="252" y="338"/>
      <point x="176" y="368"/>
      <point x="90" y="424" type="curve"/>
      <point x="-86" y="114" type="line"/>
      <point x="16" y="26"/>
      <point x="170" y="-30"/>
    </contour>
  </outline>
</glyph>
<glyph name="L" format="2">
  <advance width="1152"/>
  <unicode hex="004C"/>
  <anchor x="516" y="0" name="bottom"/>
  <anchor x="758" y="1440" name="caron"/>
  <anchor x="546" y="1400" name="top"/>
  <outline>
    <contour>
      <point x="48" y="0" type="line"/>
      <point x="982" y="0" type="line"/>
      <point x="1060" y="368" type="line"/>
      <point x="530" y="368" type="line"/>
      <point x="748" y="1400" type="line"/>
      <point x="344" y="1400" type="line"/>
    </contour>
  </outline>
</glyph>
<glyph name="O" format="2">
  <advance width="1664"/>
  <unicode hex="004F"/>
  <guideline x="455" y="621" angle="85.1611"/>
  <anchor x="758" y="0" name="bottom"/>
  <anchor x="1386" y="1400" name="horn"/>
  <anchor x="1024" y="0" name="ogonek"/>
  <anchor x="982" y="1400" name="top"/>
  <anchor x="276" y="1400" name="topleft"/>
  <outline>
    <contour>
      <point x="802" y="-30" type="curve" smooth="yes"/>
      <point x="1258" y="-30"/>
      <point x="1632" y="332"/>
      <point x="1632" y="782" type="curve" smooth="yes"/>
      <point x="1632" y="1148"/>
      <point x="1356" y="1430"/>
      <point x="936" y="1430" type="curve" smooth="yes"/>
      <point x="480" y="1430"/>
      <point x="108" y="1070"/>
      <point x="108" y="614" type="curve" smooth="yes"/>
      <point x="108" y="244"/>
      <point x="384" y="-30"/>
    </contour>
    <contour>
      <point x="836" y="348" type="curve" smooth="yes"/>
      <point x="652" y="348"/>
      <point x="534" y="462"/>
      <point x="534" y="644" type="curve" smooth="yes"/>
      <point x="534" y="872"/>
      <point x="684" y="1052"/>
      <point x="904" y="1052" type="curve" smooth="yes"/>
      <point x="1088" y="1052"/>
      <point x="1206" y="938"/>
      <point x="1206" y="756" type="curve" smooth="yes"/>
      <point x="1206" y="528"/>
      <point x="1056" y="348"/>
    </contour>
  </outline>
</glyph>
<glyph name="Q" format="2">
  <advance width="1664"/>
  <unicode hex="0051"/>
  <outline>
    <contour>
      <point x="1228" y="-124" type="line"/>
      <point x="1484" y="64" type="line"/>
      <point x="1378" y="208" type="line"/>
      <point x="1536" y="356"/>
      <point x="1634" y="570"/>
      <point x="1634" y="784" type="curve" smooth="yes"/>
      <point x="1634" y="1154"/>
      <point x="1342" y="1430"/>
      <point x="938" y="1430" type="curve" smooth="yes"/>
      <point x="484" y="1430"/>
      <point x="108" y="1068"/>
      <point x="108" y="616" type="curve" smooth="yes"/>
      <point x="108" y="240"/>
      <point x="390" y="-30"/>
      <point x="786" y="-30" type="curve" smooth="yes"/>
      <point x="896" y="-30"/>
      <point x="1006" y="-6"/>
      <point x="1112" y="36" type="curve"/>
    </contour>
    <contour>
      <point x="824" y="306" type="curve" smooth="yes"/>
      <point x="634" y="306"/>
      <point x="510" y="442"/>
      <point x="510" y="636" type="curve" smooth="yes"/>
      <point x="510" y="882"/>
      <point x="670" y="1078"/>
      <point x="908" y="1078" type="curve" smooth="yes"/>
      <point x="1106" y="1078"/>
      <point x="1246" y="950"/>
      <point x="1246" y="754" type="curve" smooth="yes"/>
      <point x="1246" y="664"/>
      <point x="1216" y="562"/>
      <point x="1166" y="490" type="curve"/>
      <point x="1020" y="692" type="line"/>
      <point x="786" y="520" type="line"/>
      <point x="926" y="318" type="line"/>
      <point x="892" y="310"/>
      <point x="856" y="306"/>
    </contour>
  </outline>
</glyph>
<glyph name="R" format="2">
  <advance width="1414"/>
  <unicode hex="0052"/>
  <anchor x="626" y="0" name="bottom"/>
  <anchor x="856" y="1400" name="top"/>
  <outline>
    <contour>
      <point x="48" y="0" type="line"/>
      <point x="452" y="0" type="line"/>
      <point x="554" y="482" type="line"/>
      <point x="632" y="482" type="line"/>
      <point x="808" y="0" type="line"/>
      <point x="1270" y="0" type="line"/>
      <point x="1034" y="554" type="line"/>
      <point x="1248" y="616"/>
      <point x="1398" y="792"/>
      <point x="1398" y="1010" type="curve" smooth="yes"/>
      <point x="1398" y="1252"/>
      <point x="1204" y="1400"/>
      <point x="874" y="1400" type="curve" smooth="yes"/>
      <point x="344" y="1400" type="line"/>
    </contour>
    <contour>
      <point x="622" y="800" type="line"/>
      <point x="680" y="1072" type="line"/>
      <point x="798" y="1072" type="line" smooth="yes"/>
      <point x="914" y="1072"/>
      <point x="982" y="1046"/>
      <point x="982" y="954" type="curve" smooth="yes"/>
      <point x="982" y="854"/>
      <point x="912" y="800"/>
      <point x="808" y="800" type="curve" smooth="yes"/>
    </contour>
  </outline>
</glyph>
<glyph name="V" format="2">
  <advance width="1446"/>
  <unicode hex="0056"/>
  <outline>
    <contour>
      <point x="372" y="0" type="line"/>
      <point x="840" y="0" type="line"/>
      <point x="1650" y="1400" type="line"/>
      <point x="1180" y="1400" type="line"/>
      <point x="710" y="518" type="line"/>
      <point x="618" y="1400" type="line"/>
      <point x="170" y="1400" type="line"/>
    </contour>
  </outline>
</glyph>
<glyph name="Y" format="2">
  <advance width="1338"/>
  <unicode hex="0059"/>
  <anchor x="552" y="0" name="bottom"/>
  <anchor x="846" y="1400" name="top"/>
  <anchor x="128" y="1400" name="topleft"/>
  <outline>
    <contour>
      <point x="348" y="0" type="line"/>
      <point x="754" y="0" type="line"/>
      <point x="874" y="564" type="line"/>
      <point x="1544" y="1400" type="line"/>
      <point x="1082" y="1400" type="line"/>
      <point x="746" y="964" type="line"/>
      <point x="600" y="1400" type="line"/>
      <point x="168" y="1400" type="line"/>
      <point x="468" y="572" type="line"/>
    </contour>
  </outline>
</glyph>
<glyph name="backslash" format="2">
  <advance width="996"/>
  <unicode hex="005C"/>
  <guideline x="384" y="1306" angle="10.6398"/>
  <guideline x="371" y="385" angle="10.6398"/>
  <outline>
    <contour>
      <point x="530" y="-230" type="line"/>
      <point x="882" y="-162" type="line"/>
      <point x="542" y="1610" type="line"/>
      <point x="190" y="1546" type="line"/>
    </contour>
  </outline>
</glyph>
<glyph name="a" format="2">
  <advance width="1227"/>
  <unicode hex="0061"/>
  <anchor x="482" y="0" name="bottom"/>
  <anchor x="1000" y="0" name="ogonek"/>
  <anchor x="700" y="1040" name="top"/>
  <outline>
    <contour>
      <point x="360" y="-28" type="curve" smooth="yes"/>
      <point x="496" y="-28"/>
      <point x="614" y="20"/>
      <point x="678" y="102" type="curve"/>
      <point x="658" y="0" type="line"/>
      <point x="1000" y="0" type="line"/>
      <point x="1116" y="562" type="line" smooth="yes"/>
      <point x="1180" y="874"/>
      <point x="1014" y="1080"/>
      <point x="640" y="1080" type="curve" smooth="yes"/>
      <point x="474" y="1080"/>
      <point x="326" y="1045"/>
      <point x="205" y="971" type="curve"/>
      <point x="262" y="702" type="line"/>
      <point x="328" y="750"/>
      <point x="442" y="782"/>
      <point x="542" y="782" type="curve" smooth="yes"/>
      <point x="704" y="782"/>
      <point x="774" y="730"/>
      <point x="748" y="614" type="curve" smooth="yes"/>
      <point x="702" y="402" type="line" smooth="yes"/>
      <point x="680" y="304"/>
      <point x="608" y="250"/>
      <point x="504" y="250" type="curve" smooth="yes"/>
      <point x="434" y="250"/>
      <point x="392" y="276"/>
      <point x="392" y="322" type="curve" smooth="yes"/>
      <point x="392" y="415"/>
      <point x="560" y="452"/>
      <point x="754" y="422" type="curve"/>
      <point x="804" y="648" type="line"/>
      <point x="314" y="690"/>
      <point x="22" y="558"/>
      <point x="22" y="286" type="curve" smooth="yes"/>
      <point x="22" y="94"/>
      <point x="154" y="-28"/>
    </contour>
  </outline>
</glyph>
<glyph name="c" format="2">
  <advance width="1138"/>
  <unicode hex="0063"/>
  <anchor x="516" y="0" name="bottom"/>
  <anchor x="696" y="1040" name="top"/>
  <outline>
    <contour>
      <point x="590" y="-30" type="curve" smooth="yes"/>
      <point x="732" y="-30"/>
      <point x="886" y="12"/>
      <point x="1008" y="84" type="curve"/>
      <point x="916" y="402" type="line"/>
      <point x="832" y="340"/>
      <point x="750" y="310"/>
      <point x="664" y="310" type="curve" smooth="yes"/>
      <point x="526" y="310"/>
      <point x="448" y="376"/>
      <point x="448" y="499" type="curve" smooth="yes"/>
      <point x="448" y="628"/>
      <point x="538" y="730"/>
      <point x="692" y="730" type="curve" smooth="yes"/>
      <point x="782" y="730"/>
      <point x="864" y="700"/>
      <point x="926" y="628" type="curve"/>
      <point x="1146" y="906" type="line"/>
      <point x="1036" y="1012"/>
      <point x="880" y="1070"/>
      <point x="702" y="1070" type="curve" smooth="yes"/>
      <point x="350" y="1070"/>
      <point x="50" y="802"/>
      <point x="50" y="460" type="curve" smooth="yes"/>
      <point x="50" y="178"/>
      <point x="270" y="-30"/>
    </contour>
  </outline>
</glyph>
<glyph name="d" format="2">
  <advance width="1372"/>
  <unicode hex="0064"/>
  <anchor x="1154" y="1224" name="bar"/>
  <anchor x="1438" y="1440" name="caron"/>
  <outline>
    <contour>
      <point x="514" y="-30" type="curve" smooth="yes"/>
      <point x="686" y="-30"/>
      <point x="818" y="48"/>
      <point x="886" y="176" type="curve"/>
      <point x="852" y="282" type="line"/>
      <point x="792" y="0" type="line"/>
      <point x="1132" y="0" type="line"/>
      <point x="1438" y="1440" type="line"/>
      <point x="1040" y="1440" type="line"/>
      <point x="906" y="808" type="line"/>
      <point x="1014" y="880" type="line"/>
      <point x="934" y="1012"/>
      <point x="792" y="1070"/>
      <point x="638" y="1070" type="curve" smooth="yes"/>
      <point x="298" y="1070"/>
      <point x="48" y="780"/>
      <point x="48" y="436" type="curve" smooth="yes"/>
      <point x="48" y="148"/>
      <point x="242" y="-30"/>
    </contour>
    <contour>
      <point x="622" y="310" type="curve" smooth="yes"/>
      <point x="518" y="310"/>
      <point x="440" y="378"/>
      <point x="440" y="488" type="curve" smooth="yes"/>
      <point x="440" y="616"/>
      <point x="530" y="730"/>
      <point x="666" y="730" type="curve" smooth="yes"/>
      <point x="772" y="730"/>
      <point x="848" y="660"/>
      <point x="848" y="550" type="curve" smooth="yes"/>
      <point x="848" y="424"/>
      <point x="758" y="310"/>
    </contour>
  </outline>
</glyph>
<glyph name="e" format="2">
  <advance width="1238"/>
  <unicode hex="0065"/>
  <guideline x="1159" y="408" angle="78"/>
  <guideline x="1081" y="408" angle="78"/>
  <anchor x="523" y="0" name="bottom"/>
  <anchor x="994" y="0" name="ogonek"/>
  <anchor x="711" y="1040" name="top"/>
  <outline>
    <contour>
      <point x="593" y="-30" type="curve" smooth="yes"/>
      <point x="741" y="-30"/>
      <point x="925" y="10"/>
      <point x="1025" y="65" type="curve"/>
      <point x="961" y="342" type="line"/>
      <point x="857" y="292"/>
      <point x="759" y="270"/>
      <point x="649" y="270" type="curve" smooth="yes"/>
      <point x="523" y="270"/>
      <point x="405" y="312"/>
      <point x="403" y="408" type="curve"/>
      <point x="1159" y="408" type="line"/>
      <point x="1281" y="774"/>
      <point x="1075" y="1070"/>
      <point x="677" y="1070" type="curve" smooth="yes"/>
      <point x="319" y="1070"/>
      <point x="53" y="816"/>
      <point x="53" y="460" type="curve" smooth="yes"/>
      <point x="53" y="172"/>
      <point x="261" y="-30"/>
    </contour>
    <contour>
      <point x="471" y="668" type="line"/>
      <point x="483" y="742"/>
      <point x="557" y="790"/>
      <point x="655" y="790" type="curve" smooth="yes"/>
      <point x="751" y="790"/>
      <point x="819" y="750"/>
      <point x="819" y="668" type="curve"/>
    </contour>
  </outline>
</glyph>
<glyph name="g" format="2">
  <advance width="1246"/>
  <unicode hex="0067"/>
  <anchor x="654" y="1040" name="top"/>
  <outline>
    <contour>
      <point x="442" y="-450" type="curve" smooth="yes"/>
      <point x="754" y="-450"/>
      <point x="1048" y="-334"/>
      <point x="1048" y="-94" type="curve" smooth="yes"/>
      <point x="1048" y="50"/>
      <point x="918" y="140"/>
      <point x="674" y="188" type="curve" smooth="yes"/>
      <point x="500" y="224" type="line" smooth="yes"/>
      <point x="442" y="236"/>
      <point x="402" y="246"/>
      <point x="402" y="276" type="curve" smooth="yes"/>
      <point x="402" y="312"/>
      <point x="448" y="330"/>
      <point x="554" y="328" type="curve"/>
      <point x="516" y="470" type="line"/>
      <point x="312" y="478"/>
      <point x="72" y="392"/>
      <point x="72" y="222" type="curve" smooth="yes"/>
      <point x="72" y="152"/>
      <point x="102" y="104"/>
      <point x="152" y="70" type="curve"/>
      <point x="-10" y="52"/>
      <point x="-124" y="-44"/>
      <point x="-124" y="-160" type="curve" smooth="yes"/>
      <point x="-124" y="-370"/>
      <point x="184" y="-450"/>
    </contour>
    <contour>
      <point x="472" y="-216" type="curve" smooth="yes"/>
      <point x="372" y="-216"/>
      <point x="226" y="-184"/>
      <point x="226" y="-110" type="curve" smooth="yes"/>
      <point x="226" y="-62"/>
      <point x="288" y="-40"/>
      <point x="364" y="-42" type="curve"/>
      <point x="562" y="-78" type="line" smooth="yes"/>
      <point x="628" y="-90"/>
      <point x="676" y="-104"/>
      <point x="676" y="-144" type="curve" smooth="yes"/>
      <point x="676" y="-200"/>
      <point x="580" y="-216"/>
    </contour>
    <contour>
      <point x="584" y="320" type="curve" smooth="yes"/>
      <point x="856" y="320"/>
      <point x="1082" y="486"/>
      <point x="1082" y="718" type="curve" smooth="yes"/>
      <point x="1082" y="918"/>
      <point x="902" y="1070"/>
      <point x="618" y="1070" type="curve" smooth="yes"/>
      <point x="346" y="1070"/>
      <point x="122" y="908"/>
      <point x="122" y="672" type="curve" smooth="yes"/>
      <point x="122" y="474"/>
      <point x="302" y="320"/>
    </contour>
    <contour>
      <point x="598" y="580" type="curve" smooth="yes"/>
      <point x="512" y="580"/>
      <point x="450" y="626"/>
      <point x="450" y="692" type="curve" smooth="yes"/>
      <point x="450" y="760"/>
      <point x="522" y="812"/>
      <point x="608" y="812" type="curve" smooth="yes"/>
      <point x="690" y="812"/>
      <point x="752" y="766"/>
      <point x="752" y="704" type="curve" smooth="yes"/>
      <point x="752" y="634"/>
      <point x="684" y="580"/>
    </contour>
    <contour>
      <point x="766" y="748" type="line"/>
      <point x="1268" y="728" type="line"/>
      <point x="1334" y="1040" type="line"/>
      <point x="676" y="1000" type="line"/>
    </contour>
  </outline>
</glyph>
<glyph name="k" format="2">
  <advance width="1274"/>
  <unicode hex="006B"/>
  <anchor x="562" y="0" name="bottom"/>
  <outline>
    <contour>
      <point x="18" y="0" type="line"/>
      <point x="418" y="0" type="line"/>
      <point x="476" y="270" type="line"/>
      <point x="556" y="344" type="line"/>
      <point x="694" y="0" type="line"/>
      <point x="1150" y="0" type="line"/>
      <point x="888" y="594" type="line"/>
      <point x="1348" y="1040" type="line"/>
      <point x="868" y="1040" type="line"/>
      <point x="582" y="766" type="line"/>
      <point x="726" y="1440" type="line"/>
      <point x="326" y="1440" type="line"/>
    </contour>
  </outline>
</glyph>
<glyph name="p" format="2">
  <advance width="1371"/>
  <unicode hex="0070"/>
  <outline>
    <contour>
      <point x="-70" y="-420" type="line"/>
      <point x="328" y="-420" type="line"/>
      <point x="434" y="76" type="line"/>
      <point x="514" y="4"/>
      <point x="620" y="-30"/>
      <point x="730" y="-30" type="curve" smooth="yes"/>
      <point x="1074" y="-30"/>
      <point x="1324" y="260"/>
      <point x="1324" y="608" type="curve" smooth="yes"/>
      <point x="1324" y="892"/>
      <point x="1136" y="1070"/>
      <point x="864" y="1070" type="curve" smooth="yes"/>
      <point x="740" y="1070"/>
      <point x="638" y="1032"/>
      <point x="564" y="962" type="curve"/>
      <point x="580" y="1040" type="line"/>
      <point x="240" y="1040" type="line"/>
    </contour>
    <contour>
      <point x="706" y="310" type="curve" smooth="yes"/>
      <point x="598" y="310"/>
      <point x="524" y="382"/>
      <point x="524" y="496" type="curve" smooth="yes"/>
      <point x="524" y="618"/>
      <point x="614" y="730"/>
      <point x="750" y="730" type="curve" smooth="yes"/>
      <point x="856" y="730"/>
      <point x="932" y="664"/>
      <point x="932" y="556" type="curve" smooth="yes"/>
      <point x="932" y="404"/>
      <point x="828" y="310"/>
    </contour>
  </outline>
</glyph>
<glyph name="r" format="2">
  <advance width="936"/>
  <unicode hex="0072"/>
  <anchor x="218" y="0" name="bottom"/>
  <anchor x="640" y="1040" name="top"/>
  <outline>
    <contour>
      <point x="18" y="0" type="line"/>
      <point x="418" y="0" type="line"/>
      <point x="526" y="506" type="line" smooth="yes"/>
      <point x="552" y="632"/>
      <point x="638" y="680"/>
      <point x="738" y="680" type="curve" smooth="yes"/>
      <point x="794" y="680"/>
      <point x="852" y="666"/>
      <point x="900" y="646" type="curve"/>
      <point x="1030" y="1058" type="line"/>
      <point x="996" y="1066"/>
      <point x="960" y="1072"/>
      <point x="918" y="1072" type="curve" smooth="yes"/>
      <point x="798" y="1072"/>
      <point x="674" y="1012"/>
      <point x="606" y="888" type="curve"/>
      <point x="640" y="1040" type="line"/>
      <point x="240" y="1040" type="line"/>
    </contour>
  </outline>
</glyph>
<glyph name="z" format="2">
  <advance width="1052"/>
  <unicode hex="007A"/>
  <anchor x="638" y="1040" name="top"/>
  <outline>
    <contour>
      <point x="-38" y="0" type="line"/>
      <point x="872" y="0" type="line"/>
      <point x="946" y="350" type="line"/>
      <point x="576" y="350" type="line"/>
      <point x="1030" y="780" type="line"/>
      <point x="1084" y="1040" type="line"/>
      <point x="200" y="1040" type="line"/>
      <point x="126" y="690" type="line"/>
      <point x="500" y="690" type="line"/>
      <point x="16" y="262" type="line"/>
    </contour>
  </outline>
</glyph>
<glyph name="braceleft" format="2">
  <advance width="756"/>
  <unicode hex="007B"/>
  <outline>
    <contour>
      <point x="466" y="-426" type="curve"/>
      <point x="522" y="-160" type="line"/>
      <point x="396" y="-166"/>
      <point x="358" y="-126"/>
      <point x="394" y="-36" type="curve" smooth="yes"/>
      <point x="508" y="242" type="line" smooth="yes"/>
      <point x="558" y="370"/>
      <point x="518" y="464"/>
      <point x="388" y="490" type="curve"/>
      <point x="388" y="492" type="line"/>
      <point x="524" y="514"/>
      <point x="606" y="608"/>
      <point x="608" y="738" type="curve" smooth="yes"/>
      <point x="618" y="1016" type="line" smooth="yes"/>
      <point x="622" y="1110"/>
      <point x="676" y="1148"/>
      <point x="798" y="1140" type="curve"/>
      <point x="854" y="1406" type="line"/>
      <point x="490" y="1434"/>
      <point x="306" y="1304"/>
      <point x="296" y="988" type="curve" smooth="yes"/>
      <point x="288" y="748" type="line" smooth="yes"/>
      <point x="286" y="656"/>
      <point x="238" y="624"/>
      <point x="88" y="624" type="curve"/>
      <point x="32" y="358" type="line"/>
      <point x="182" y="358"/>
      <point x="216" y="326"/>
      <point x="180" y="234" type="curve" smooth="yes"/>
      <point x="84" y="-10" type="line" smooth="yes"/>
      <point x="-40" y="-324"/>
      <point x="90" y="-454"/>
    </contour>
  </outline>
</glyph>
<glyph name="bar" format="2">
  <advance width="723"/>
  <unicode hex="007C"/>
  <outline>
    <contour>
      <point x="44" y="-220" type="line"/>
      <point x="364" y="-220" type="line"/>
      <point x="752" y="1600" type="line"/>
      <point x="432" y="1600" type="line"/>
    </contour>
  </outline>
</glyph>
<glyph name="braceright" format="2">
  <advance width="734"/>
  <unicode hex="007D"/>
  <outline>
    <contour>
      <point x="-136" y="-426" type="line"/>
      <point x="230" y="-454"/>
      <point x="414" y="-324"/>
      <point x="424" y="-10" type="curve" smooth="yes"/>
      <point x="432" y="234" type="line" smooth="yes"/>
      <point x="434" y="326"/>
      <point x="482" y="358"/>
      <point x="632" y="358" type="curve"/>
      <point x="690" y="624" type="line"/>
      <point x="540" y="624"/>
      <point x="504" y="656"/>
      <point x="542" y="748" type="curve" smooth="yes"/>
      <point x="636" y="988" type="line" smooth="yes"/>
      <point x="760" y="1304"/>
      <point x="632" y="1434"/>
      <point x="256" y="1406" type="curve"/>
      <point x="198" y="1140" type="line"/>
      <point x="324" y="1148"/>
      <point x="362" y="1110"/>
      <point x="326" y="1016" type="curve" smooth="yes"/>
      <point x="218" y="738" type="line" smooth="yes"/>
      <point x="164" y="608"/>
      <point x="206" y="514"/>
      <point x="334" y="492" type="curve"/>
      <point x="332" y="490" type="line"/>
      <point x="192" y="464"/>
      <point x="112" y="370"/>
      <point x="106" y="242" type="curve" smooth="yes"/>
      <point x="102" y="-36" type="line" smooth="yes"/>
      <point x="100" y="-126"/>
      <point x="46" y="-166"/>
      <point x="-78" y="-160" type="curve"/>
    </contour>
  </outline>
</glyph>
<glyph name="asciitilde" format="2">
  <advance width="1297"/>
  <unicode hex="007E"/>
  <outline>
    <contour>
      <point x="918" y="460" type="curve" smooth="yes"/>
      <point x="1044" y="460"/>
      <point x="1172" y="522"/>
      <point x="1282" y="642" type="curve"/>
      <point x="1186" y="874" type="line"/>
      <point x="1104" y="778"/>
      <point x="1020" y="732"/>
      <point x="938" y="732" type="curve" smooth="yes"/>
      <point x="812" y="732"/>
      <point x="626" y="880"/>
      <point x="450" y="880" type="curve" smooth="yes"/>
      <point x="328" y="880"/>
      <point x="206" y="816"/>
      <point x="98" y="698" type="curve"/>
      <point x="194" y="466" type="line"/>
      <point x="272" y="560"/>
      <point x="358" y="608"/>
      <point x="442" y="608" type="curve" smooth="yes"/>
      <point x="578" y="608"/>
      <point x="710" y="460"/>
    </contour>
  </outline>
</glyph>
<glyph name="section" format="2">
  <advance width="1307"/>
  <unicode hex="00A7"/>
  <outline>
    <contour>
      <point x="490" y="-450" type="curve" smooth="yes"/>
      <point x="790" y="-450"/>
      <point x="1042" y="-288"/>
      <point x="1042" y="-8" type="curve" smooth="yes"/>
      <point x="1042" y="168"/>
      <point x="924" y="270"/>
      <point x="674" y="338" type="curve" smooth="yes"/>
      <point x="526" y="378"/>
      <point x="438" y="420"/>
      <point x="438" y="494" type="curve" smooth="yes"/>
      <point x="438" y="602"/>
      <point x="558" y="658"/>
      <point x="692" y="652" type="curve"/>
      <point x="724" y="858" type="line"/>
      <point x="378" y="858"/>
      <point x="86" y="726"/>
      <point x="86" y="444" type="curve" smooth="yes"/>
      <point x="86" y="258"/>
      <point x="244" y="166"/>
      <point x="538" y="86" type="curve" smooth="yes"/>
      <point x="672" y="50"/>
      <point x="714" y="16"/>
      <point x="714" y="-36" type="curve" smooth="yes"/>
      <point x="714" y="-104"/>
      <point x="630" y="-142"/>
      <point x="530" y="-142" type="curve" smooth="yes"/>
      <point x="390" y="-142"/>
      <point x="238" y="-84"/>
      <point x="134" y="-2" type="curve"/>
      <point x="-40" y="-272" type="line"/>
      <point x="76" y="-374"/>
      <point x="274" y="-450"/>
    </contour>
    <contour>
      <point x="594" y="128" type="line"/>
      <point x="938" y="128"/>
      <point x="1232" y="256"/>
      <point x="1232" y="544" type="curve" smooth="yes"/>
      <point x="1232" y="722"/>
      <point x="1078" y="820"/>
      <point x="802" y="894" type="curve" smooth="yes"/>
      <point x="650" y="936"/>
      <point x="606" y="964"/>
      <point x="606" y="1016" type="curve" smooth="yes"/>
      <point x="606" y="1092"/>
      <point x="688" y="1122"/>
      <point x="778" y="1122" type="curve" smooth="yes"/>
      <point x="898" y="1122"/>
      <point x="1056" y="1068"/>
      <point x="1154" y="982" type="curve"/>
      <point x="1328" y="1252" type="line"/>
      <point x="1204" y="1364"/>
      <point x="1010" y="1430"/>
      <point x="816" y="1430" type="curve" smooth="yes"/>
      <point x="520" y="1430"/>
      <point x="280" y="1268"/>
      <point x="280" y="990" type="curve" smooth="yes"/>
      <point x="280" y="814"/>
      <point x="396" y="710"/>
      <point x="636" y="650" type="curve" smooth="yes"/>
      <point x="802" y="608"/>
      <point x="882" y="566"/>
      <point x="882" y="494" type="curve" smooth="yes"/>
      <point x="882" y="380"/>
      <point x="758" y="324"/>
      <point x="624" y="332" type="curve"/>
    </contour>
  </outline>
</glyph>
<glyph name="ordfeminine" format="2">
  <advance width="866"/>
  <unicode hex="00AA"/>
  <guideline x="211" y="450" angle="0"/>
  <anchor x="468" y="722" name="bottom"/>
  <anchor x="812" y="722" name="ogonek"/>
  <anchor x="610" y="1398" name="top"/>
  <outline>
    <contour>
      <point x="388" y="704" type="curve" smooth="yes"/>
      <point x="484" y="704"/>
      <point x="562" y="738"/>
      <point x="602" y="788" type="curve"/>
      <point x="590" y="722" type="line"/>
      <point x="812" y="722" type="line"/>
      <point x="888" y="1088" type="line" smooth="yes"/>
      <point x="930" y="1290"/>
      <point x="830" y="1424"/>
      <point x="570" y="1424" type="curve" smooth="yes"/>
      <point x="426" y="1424"/>
      <point x="314" y="1384"/>
      <point x="226" y="1300" type="curve"/>
      <point x="258" y="1462" type="line"/>
      <point x="320" y="1178" type="line"/>
      <point x="362" y="1208"/>
      <point x="440" y="1230"/>
      <point x="508" y="1230" type="curve" smooth="yes"/>
      <point x="616" y="1230"/>
      <point x="664" y="1196"/>
      <point x="648" y="1122" type="curve" smooth="yes"/>
      <point x="618" y="984" type="line" smooth="yes"/>
      <point x="604" y="920"/>
      <point x="552" y="884"/>
      <point x="480" y="884" type="curve" smooth="yes"/>
      <point x="432" y="884"/>
      <point x="402" y="902"/>
      <point x="402" y="932" type="curve" smooth="yes"/>
      <point x="402" y="986"/>
      <point x="520" y="1016"/>
      <point x="654" y="996" type="curve"/>
      <point x="684" y="1144" type="line"/>
      <point x="360" y="1170"/>
      <point x="162" y="1086"/>
      <point x="162" y="910" type="curve" smooth="yes"/>
      <point x="162" y="784"/>
      <point x="252" y="704"/>
    </contour>
  </outline>
</glyph>
<glyph name="paragraph" format="2">
  <advance width="1452"/>
  <unicode hex="00B6"/>
  <outline>
    <contour>
      <point x="364" y="-420" type="line"/>
      <point x="624" y="-420" type="line"/>
      <point x="966" y="1186" type="line"/>
      <point x="1098" y="1186" type="line"/>
      <point x="756" y="-420" type="line"/>
      <point x="1016" y="-420" type="line"/>
      <point x="1358" y="1186" type="line"/>
      <point x="1562" y="1186" type="line"/>
      <point x="1608" y="1400" type="line"/>
      <point x="784" y="1400" type="line" smooth="yes"/>
      <point x="420" y="1400"/>
      <point x="128" y="1204"/>
      <point x="128" y="878" type="curve" smooth="yes"/>
      <point x="128" y="624"/>
      <point x="326" y="458"/>
      <point x="624" y="464" type="curve"/>
      <point x="562" y="510" type="line"/>
    </contour>
  </outline>
</glyph>
<glyph name="ae" format="2">
  <advance width="1868"/>
  <unicode hex="00E6"/>
  <anchor x="1012" y="1040" name="top"/>
  <outline>
    <contour>
      <point x="400" y="-30" type="curve" smooth="yes"/>
      <point x="602" y="-30"/>
      <point x="828" y="46"/>
      <point x="944" y="290" type="curve"/>
      <point x="840" y="274" type="line"/>
      <point x="858" y="74"/>
      <point x="1024" y="-30"/>
      <point x="1272" y="-30" type="curve" smooth="yes"/>
      <point x="1406" y="-30"/>
      <point x="1566" y="14"/>
      <point x="1656" y="72" type="curve"/>
      <point x="1596" y="346" type="line"/>
      <point x="1494" y="294"/>
      <point x="1402" y="270"/>
      <point x="1304" y="270" type="curve" smooth="yes"/>
      <point x="1176" y="270"/>
      <point x="1086" y="324"/>
      <point x="1080" y="408" type="curve"/>
      <point x="1790" y="408" type="line"/>
      <point x="1906" y="778"/>
      <point x="1726" y="1070"/>
      <point x="1358" y="1070" type="curve" smooth="yes"/>
      <point x="1180" y="1070"/>
      <point x="1028" y="1000"/>
      <point x="922" y="854" type="curve"/>
      <point x="1064" y="858" type="line"/>
      <point x="998" y="1000"/>
      <point x="854" y="1080"/>
      <point x="640" y="1080" type="curve" smooth="yes"/>
      <point x="474" y="1080"/>
      <point x="326" y="1046"/>
      <point x="206" y="972" type="curve"/>
      <point x="262" y="702" type="line"/>
      <point x="328" y="750"/>
      <point x="442" y="782"/>
      <point x="542" y="782" type="curve" smooth="yes"/>
      <point x="702" y="782"/>
      <point x="770" y="732"/>
      <point x="750" y="620" type="curve" smooth="yes"/>
      <point x="702" y="402" type="line" smooth="yes"/>
      <point x="680" y="298"/>
      <point x="608" y="248"/>
      <point x="504" y="248" type="curve" smooth="yes"/>
      <point x="434" y="248"/>
      <point x="392" y="274"/>
      <point x="392" y="322" type="curve" smooth="yes"/>
      <point x="392" y="419"/>
      <point x="560" y="452"/>
      <point x="754" y="422" type="curve"/>
      <point x="802" y="648" type="line"/>
      <point x="314" y="690"/>
      <point x="22" y="558"/>
      <point x="22" y="286" type="curve" smooth="yes"/>
      <point x="22" y="92"/>
      <point x="164" y="-30"/>
    </contour>
    <contour>
      <point x="1126" y="668" type="line"/>
      <point x="1134" y="740"/>
      <point x="1208" y="790"/>
      <point x="1306" y="790" type="curve" smooth="yes"/>
      <point x="1404" y="790"/>
      <point x="1468" y="740"/>
      <point x="1460" y="668" type="curve"/>
    </contour>
  </outline>
</glyph>
<glyph name="thorn" format="2">
  <advance width="1372"/>
  <unicode hex="00FE"/>
  <outline>
    <contour>
      <point x="-69" y="-420" type="line"/>
      <point x="329" y="-420" type="line"/>
      <point x="435" y="76" type="line"/>
      <point x="515" y="4"/>
      <point x="621" y="-30"/>
      <point x="731" y="-30" type="curve" smooth="yes"/>
      <point x="1075" y="-30"/>
      <point x="1325" y="260"/>
      <point x="1325" y="608" type="curve" smooth="yes"/>
      <point x="1325" y="876"/>
      <point x="1141" y="1070"/>
      <point x="851" y="1070" type="curve" smooth="yes"/>
      <point x="769" y="1070"/>
      <point x="699" y="1052"/>
      <point x="633" y="1012" type="curve"/>
      <point x="723" y="1440" type="line"/>
      <point x="325" y="1440" type="line"/>
    </contour>
    <contour>
      <point x="705" y="310" type="curve" smooth="yes"/>
      <point x="597" y="310"/>
      <point x="523" y="382"/>
      <point x="523" y="496" type="curve" smooth="yes"/>
      <point x="523" y="618"/>
      <point x="613" y="730"/>
      <point x="749" y="730" type="curve" smooth="yes"/>
      <point x="855" y="730"/>
      <point x="931" y="664"/>
      <point x="931" y="556" type="curve" smooth="yes"/>
      <point x="931" y="404"/>
      <point x="827" y="310"/>
    </contour>
  </outline>
</glyph>
<glyph name="idotless" format="2">
  <advance width="660"/>
  <unicode hex="0131"/>
  <anchor x="220" y="0" name="bottom"/>
  <anchor x="420" y="0" name="ogonek"/>
  <anchor x="440" y="1040" name="top"/>
  <outline>
    <contour>
      <point x="20" y="0" type="line"/>
      <point x="420" y="0" type="line"/>
      <point x="640" y="1040" type="line"/>
      <point x="240" y="1040" type="line"/>
    </contour>
  </outline>
</glyph>
<glyph name="Lslash" format="2">
  <advance width="1192"/>
  <unicode hex="0141"/>
  <anchor x="556.0" y="0" name="bottom"/>
  <anchor x="801.384" y="1440" name="caron"/>
  <anchor x="589.29" y="1400" name="top"/>
  <outline>
    <contour>
      <point x="-52" y="356" type="line"/>
      <point x="380" y="538" type="line"/>
      <point x="372" y="498" type="line"/>
      <point x="1090" y="804" type="line"/>
      <point x="1164" y="1152" type="line"/>
      <point x="446" y="846" type="line"/>
      <point x="454" y="886" type="line"/>
      <point x="22" y="704" type="line"/>
    </contour>
    <component base="L" yxScale="0.00235" xOffset="40"/>
  </outline>
</glyph>
<glyph name="lslash" format="2">
  <advance width="836"/>
  <unicode hex="0142"/>
  <anchor x="304.0" y="0" name="bottom"/>
  <anchor x="815.384" y="1440" name="caron"/>
  <anchor x="615.384" y="1440" name="top"/>
  <outline>
    <contour>
      <point x="102" y="389" type="line"/>
      <point x="432" y="530" type="line"/>
      <point x="426" y="490" type="line"/>
      <point x="915" y="691" type="line"/>
      <point x="800" y="973" type="line"/>
      <point x="474" y="838" type="line"/>
      <point x="478" y="878" type="line"/>
      <point x="-12" y="667" type="line"/>
    </contour>
    <component base="l" yxScale="0.00235" xOffset="86"/>
  </outline>
</glyph>
<glyph name="eng" format="2">
  <advance width="1359"/>
  <unicode hex="014B"/>
  <outline>
    <contour>
      <point x="662" y="-450" type="curve" smooth="yes"/>
      <point x="892" y="-450"/>
      <point x="1068" y="-290"/>
      <point x="1122" y="-36" type="curve" smooth="yes"/>
      <point x="1270" y="662" type="line" smooth="yes"/>
      <point x="1316" y="888"/>
      <point x="1180" y="1070"/>
      <point x="936" y="1070" type="curve" smooth="yes"/>
      <point x="814" y="1070"/>
      <point x="700" y="1020"/>
      <point x="610" y="912" type="curve"/>
      <point x="640" y="1040" type="line"/>
      <point x="240" y="1040" type="line"/>
      <point x="18" y="0" type="line"/>
      <point x="418" y="0" type="line"/>
      <point x="532" y="536" type="line" smooth="yes"/>
      <point x="556" y="650"/>
      <point x="628" y="712"/>
      <point x="732" y="712" type="curve" smooth="yes"/>
      <point x="842" y="712"/>
      <point x="870" y="650"/>
      <point x="844" y="536" type="curve" smooth="yes"/>
      <point x="728" y="-14" type="line" smooth="yes"/>
      <point x="712" y="-92"/>
      <point x="666" y="-124"/>
      <point x="602" y="-124" type="curve" smooth="yes"/>
      <point x="564" y="-124"/>
      <point x="534" y="-116"/>
      <point x="504" y="-98" type="curve"/>
      <point x="376" y="-374" type="line"/>
      <point x="412" y="-412"/>
      <point x="522" y="-450"/>
    </contour>
  </outline>
</glyph>
<glyph name="jdotless" format="2">
  <advance width="660"/>
  <unicode hex="0237"/>
  <anchor x="441" y="1040" name="top"/>
  <outline>
    <contour>
      <point x="-47" y="-450" type="curve" smooth="yes"/>
      <point x="183" y="-450"/>
      <point x="359" y="-290"/>
      <point x="413" y="-36" type="curve" smooth="yes"/>
      <point x="641" y="1040" type="line"/>
      <point x="241" y="1040" type="line"/>
      <point x="17" y="-14" type="line" smooth="yes"/>
      <point x="1" y="-92"/>
      <point x="-43" y="-126"/>
      <point x="-107" y="-126" type="curve" smooth="yes"/>
      <point x="-145" y="-126"/>
      <point x="-177" y="-118"/>
      <point x="-207" y="-98" type="curve"/>
      <point x="-335" y="-372" type="line"/>
      <point x="-253" y="-428"/>
      <point x="-175" y="-450"/>
    </contour>
  </outline>
</glyph>
<glyph name="schwa" format="2">
  <advance width="1238"/>
  <unicode hex="0259"/>
  <outline>
    <contour>
      <point x="565" y="-30" type="curve" smooth="yes"/>
      <point x="911" y="-30"/>
      <point x="1185" y="230"/>
      <point x="1185" y="572" type="curve" smooth="yes"/>
      <point x="1185" y="898"/>
      <point x="945" y="1070"/>
      <point x="623" y="1070" type="curve" smooth="yes"/>
      <point x="484" y="1070"/>
      <point x="305" y="1026"/>
      <point x="207" y="966" type="curve"/>
      <point x="271" y="690" type="line"/>
      <point x="369" y="742"/>
      <point x="471" y="770"/>
      <point x="575" y="770" type="curve" smooth="yes"/>
      <point x="753" y="770"/>
      <point x="839" y="706"/>
      <point x="839" y="572" type="curve" smooth="yes"/>
      <point x="839" y="400"/>
      <point x="753" y="250"/>
      <point x="577" y="250" type="curve" smooth="yes"/>
      <point x="423" y="250"/>
      <point x="361" y="346"/>
      <point x="391" y="540" type="curve"/>
      <point x="211" y="382" type="line"/>
      <point x="919" y="382" type="line"/>
      <point x="975" y="642" type="line"/>
      <point x="79" y="642" type="line"/>
      <point x="-35" y="278"/>
      <point x="173" y="-30"/>
    </contour>
  </outline>
</glyph>
<glyph name="gravecomb" format="2">
  <unicode hex="0300"/>
  <anchor x="-706" y="1040" name="_top"/>
  <outline>
    <contour>
      <point x="-838" y="1170" type="line"/>
      <point x="-478" y="1170" type="line"/>
      <point x="-602" y="1544" type="line"/>
      <point x="-992" y="1544" type="line"/>
    </contour>
  </outline>
</glyph>
<glyph name="tildecomb" format="2">
  <unicode hex="0303"/>
  <anchor x="-706" y="1040" name="_top"/>
  <anchor x="-616" y="1464" name="top"/>
  <outline>
    <contour>
      <point x="-994" y="1140" type="line"/>
      <point x="-948" y="1234"/>
      <point x="-890" y="1278"/>
      <point x="-826" y="1278" type="curve" smooth="yes"/>
      <point x="-718" y="1278"/>
      <point x="-622" y="1170"/>
      <point x="-464" y="1170" type="curve" smooth="yes"/>
      <point x="-330" y="1170"/>
      <point x="-212" y="1248"/>
      <point x="-168" y="1402" type="curve"/>
      <point x="-278" y="1572" type="line"/>
      <point x="-324" y="1478"/>
      <point x="-378" y="1436"/>
      <point x="-440" y="1436" type="curve" smooth="yes"/>
      <point x="-556" y="1436"/>
      <point x="-636" y="1544"/>
      <point x="-788" y="1544" type="curve" smooth="yes"/>
      <point x="-916" y="1544"/>
      <point x="-1028" y="1462"/>
      <point x="-1112" y="1310" type="curve"/>
    </contour>
  </outline>
</glyph>
<glyph name="dotaccentcomb" format="2">
  <unicode hex="0307"/>
  <anchor x="-526" y="1040" name="_top"/>
  <anchor x="-432" y="1484" name="top"/>
  <outline>
    <contour>
      <point x="-468" y="1174" type="curve" smooth="yes"/>
      <point x="-330" y="1174"/>
      <point x="-220" y="1272"/>
      <point x="-220" y="1408" type="curve" smooth="yes"/>
      <point x="-220" y="1528"/>
      <point x="-314" y="1598"/>
      <point x="-436" y="1598" type="curve" smooth="yes"/>
      <point x="-568" y="1598"/>
      <point x="-684" y="1506"/>
      <point x="-684" y="1362" type="curve" smooth="yes"/>
      <point x="-684" y="1244"/>
      <point x="-588" y="1174"/>
    </contour>
  </outline>
</glyph>
<glyph name="dieresiscomb" format="2">
  <unicode hex="0308"/>
  <anchor x="-708" y="1040" name="_top"/>
  <anchor x="-614" y="1484" name="top"/>
  <outline>
    <contour>
      <point x="-932" y="1170" type="curve" smooth="yes"/>
      <point x="-818" y="1170"/>
      <point x="-700" y="1256"/>
      <point x="-700" y="1398" type="curve" smooth="yes"/>
      <point x="-700" y="1508"/>
      <point x="-788" y="1578"/>
      <point x="-892" y="1578" type="curve" smooth="yes"/>
      <point x="-1006" y="1578"/>
      <point x="-1124" y="1492"/>
      <point x="-1124" y="1350" type="curve" smooth="yes"/>
      <point x="-1124" y="1240"/>
      <point x="-1036" y="1170"/>
    </contour>
    <contour>
      <point x="-384" y="1170" type="curve" smooth="yes"/>
      <point x="-270" y="1170"/>
      <point x="-152" y="1256"/>
      <point x="-152" y="1398" type="curve" smooth="yes"/>
      <point x="-152" y="1508"/>
      <point x="-240" y="1578"/>
      <point x="-344" y="1578" type="curve" smooth="yes"/>
      <point x="-458" y="1578"/>
      <point x="-576" y="1492"/>
      <point x="-576" y="1350" type="curve" smooth="yes"/>
      <point x="-576" y="1240"/>
      <point x="-488" y="1170"/>
    </contour>
  </outline>
</glyph>
<glyph name="hookabovecomb" format="2">
  <unicode hex="0309"/>
  <guideline x="-272" y="817" angle="0"/>
  <anchor x="-706" y="1040" name="_top"/>
  <outline>
    <contour>
      <point x="-794" y="1170" type="curve"/>
      <point x="-558" y="1170" type="line"/>
      <point x="-570" y="1214"/>
      <point x="-548" y="1232"/>
      <point x="-480" y="1262" type="curve" smooth="yes"/>
      <point x="-390" y="1302"/>
      <point x="-328" y="1354"/>
      <point x="-328" y="1454" type="curve" smooth="yes"/>
      <point x="-328" y="1564"/>
      <point x="-438" y="1634"/>
      <point x="-626" y="1634" type="curve" smooth="yes"/>
      <point x="-714" y="1634"/>
      <point x="-810" y="1618"/>
      <point x="-878" y="1588" type="curve"/>
      <point x="-864" y="1400" type="line"/>
      <point x="-822" y="1416"/>
      <point x="-782" y="1426"/>
      <point x="-732" y="1426" type="curve" smooth="yes"/>
      <point x="-682" y="1426"/>
      <point x="-642" y="1416"/>
      <point x="-642" y="1396" type="curve" smooth="yes"/>
      <point x="-642" y="1370"/>
      <point x="-660" y="1362"/>
      <point x="-710" y="1348" type="curve" smooth="yes"/>
      <point x="-808" y="1322"/>
      <point x="-834" y="1262"/>
    </contour>
  </outline>
</glyph>
<glyph name="breveinvertedcomb" format="2">
  <unicode hex="0311"/>
  <anchor x="-706" y="1040" name="_top"/>
  <outline>
    <contour>
      <point x="-1112" y="1170" type="curve"/>
      <point x="-792" y="1170" type="line"/>
      <point x="-786" y="1252"/>
      <point x="-734" y="1304"/>
      <point x="-660" y="1304" type="curve" smooth="yes"/>
      <point x="-572" y="1304"/>
      <point x="-542" y="1248"/>
      <point x="-554" y="1170" type="curve"/>
      <point x="-232" y="1170" type="line"/>
      <point x="-204" y="1392"/>
      <point x="-370" y="1554"/>
      <point x="-646" y="1554" type="curve" smooth="yes"/>
      <point x="-906" y="1554"/>
      <point x="-1092" y="1404"/>
    </contour>
  </outline>
</glyph>
<glyph name="commaturnedabovecomb" format="2">
  <unicode hex="0312"/>
  <anchor x="-732" y="1040" name="_top"/>
  <outline>
    <contour>
      <point x="-651" y="1174" type="curve" smooth="yes"/>
      <point x="-517" y="1174"/>
      <point x="-418" y="1269"/>
      <point x="-418" y="1393" type="curve" smooth="yes"/>
      <point x="-418" y="1507"/>
      <point x="-512" y="1578"/>
      <point x="-631" y="1582" type="curve"/>
      <point x="-576" y="1662"/>
      <point x="-459" y="1727"/>
      <point x="-320" y="1780" type="curve"/>
      <point x="-398" y="1931" type="line"/>
      <point x="-660" y="1803"/>
      <point x="-891" y="1632"/>
      <point x="-891" y="1408" type="curve" smooth="yes"/>
      <point x="-891" y="1265"/>
      <point x="-792" y="1174"/>
    </contour>
  </outline>
</glyph>
<glyph name="dotbelowcomb" format="2">
  <unicode hex="0323"/>
  <anchor x="-564" y="0" name="_bottom"/>
  <outline>
    <contour>
      <point x="-654" y="-558" type="curve" smooth="yes"/>
      <point x="-516" y="-558"/>
      <point x="-406" y="-460"/>
      <point x="-406" y="-324" type="curve" smooth="yes"/>
      <point x="-406" y="-204"/>
      <point x="-500" y="-134"/>
      <point x="-622" y="-134" type="curve" smooth="yes"/>
      <point x="-754" y="-134"/>
      <point x="-870" y="-226"/>
      <point x="-870" y="-370" type="curve" smooth="yes"/>
      <point x="-870" y="-488"/>
      <point x="-774" y="-558"/>
    </contour>
  </outline>
</glyph>
<glyph name="dieresisbelowcomb" format="2">
  <unicode hex="0324"/>
  <anchor x="-568" y="0" name="_bottom"/>
  <outline>
    <contour>
      <point x="-934" y="-538" type="curve" smooth="yes"/>
      <point x="-820" y="-538"/>
      <point x="-702" y="-452"/>
      <point x="-702" y="-310" type="curve" smooth="yes"/>
      <point x="-702" y="-200"/>
      <point x="-790" y="-130"/>
      <point x="-894" y="-130" type="curve" smooth="yes"/>
      <point x="-1008" y="-130"/>
      <point x="-1126" y="-216"/>
      <point x="-1126" y="-358" type="curve" smooth="yes"/>
      <point x="-1126" y="-468"/>
      <point x="-1038" y="-538"/>
    </contour>
    <contour>
      <point x="-386" y="-538" type="curve" smooth="yes"/>
      <point x="-272" y="-538"/>
      <point x="-154" y="-452"/>
      <point x="-154" y="-310" type="curve" smooth="yes"/>
      <point x="-154" y="-200"/>
      <point x="-242" y="-130"/>
      <point x="-346" y="-130" type="curve" smooth="yes"/>
      <point x="-460" y="-130"/>
      <point x="-578" y="-216"/>
      <point x="-578" y="-358" type="curve" smooth="yes"/>
      <point x="-578" y="-468"/>
      <point x="-490" y="-538"/>
    </contour>
  </outline>
</glyph>
<glyph name="cedillacomb" format="2">
  <unicode hex="0327"/>
  <anchor x="-614" y="0" name="_bottom"/>
  <outline>
    <contour>
      <point x="-700" y="-450" type="curve" smooth="yes"/>
      <point x="-500" y="-450"/>
      <point x="-356" y="-368"/>
      <point x="-356" y="-234" type="curve" smooth="yes"/>
      <point x="-356" y="-152"/>
      <point x="-426" y="-86"/>
      <point x="-566" y="-60" type="curve"/>
      <point x="-510" y="40" type="line"/>
      <point x="-714" y="40" type="line"/>
      <point x="-806" y="-76" type="line"/>
      <point x="-756" y="-218" type="line"/>
      <point x="-684" y="-204"/>
      <point x="-630" y="-222"/>
      <point x="-630" y="-242" type="curve" smooth="yes"/>
      <point x="-630" y="-258"/>
      <point x="-652" y="-268"/>
      <point x="-702" y="-268" type="curve" smooth="yes"/>
      <point x="-778" y="-268"/>
      <point x="-856" y="-246"/>
      <point x="-896" y="-202" type="curve"/>
      <point x="-996" y="-360" type="line"/>
      <point x="-918" y="-418"/>
      <point x="-796" y="-450"/>
    </contour>
  </outline>
</glyph>
<glyph name="brevebelowcomb" format="2">
  <unicode hex="032E"/>
  <anchor x="-570" y="0" name="_bottom"/>
  <outline>
    <contour>
      <point x="-630" y="-514" type="curve" smooth="yes"/>
      <point x="-376" y="-514"/>
      <point x="-184" y="-360"/>
      <point x="-164" y="-130" type="curve"/>
      <point x="-484" y="-130" type="line"/>
      <point x="-490" y="-212"/>
      <point x="-542" y="-264"/>
      <point x="-616" y="-264" type="curve" smooth="yes"/>
      <point x="-696" y="-264"/>
      <point x="-736" y="-210"/>
      <point x="-722" y="-130" type="curve"/>
      <point x="-1044" y="-130" type="line"/>
      <point x="-1072" y="-368"/>
      <point x="-894" y="-514"/>
    </contour>
  </outline>
</glyph>
<glyph name="dieresistonos" format="2">
  <unicode hex="0385"/>
  <anchor x="-638" y="1040" name="_top"/>
  <outline>
    <contour>
      <point x="-722" y="1330" type="line"/>
      <point x="-482" y="1330" type="line"/>
      <point x="-280" y="1704" type="line"/>
      <point x="-596" y="1704" type="line"/>
    </contour>
    <contour>
      <point x="-1002" y="1186" type="curve" smooth="yes"/>
      <point x="-898" y="1186"/>
      <point x="-802" y="1260"/>
      <point x="-778" y="1374" type="curve" smooth="yes"/>
      <point x="-755" y="1484"/>
      <point x="-820" y="1562"/>
      <point x="-922" y="1562" type="curve" smooth="yes"/>
      <point x="-1026" y="1562"/>
      <point x="-1120" y="1488"/>
      <point x="-1146" y="1374" type="curve" smooth="yes"/>
      <point x="-1172" y="1260"/>
      <point x="-1106" y="1186"/>
    </contour>
    <contour>
      <point x="-214" y="1186" type="curve" smooth="yes"/>
      <point x="-110" y="1186"/>
      <point x="-14" y="1260"/>
      <point x="10" y="1374" type="curve" smooth="yes"/>
      <point x="34" y="1488"/>
      <point x="-30" y="1562"/>
      <point x="-134" y="1562" type="curve" smooth="yes"/>
      <point x="-238" y="1562"/>
      <point x="-333" y="1490"/>
      <point x="-358" y="1374" type="curve" smooth="yes"/>
      <point x="-383" y="1260"/>
      <point x="-318" y="1186"/>
    </contour>
  </outline>
</glyph>
<glyph name="Sigma" format="2">
  <advance width="1200"/>
  <unicode hex="03A3"/>
  <outline>
    <contour>
      <point x="-44" y="0" type="line"/>
      <point x="1018" y="0" type="line"/>
      <point x="1092" y="356" type="line"/>
      <point x="548" y="356" type="line"/>
      <point x="896" y="716" type="line"/>
      <point x="666" y="1044" type="line"/>
      <point x="1224" y="1044" type="line"/>
      <point x="1298" y="1400" type="line"/>
      <point x="270" y="1400" type="line"/>
      <point x="202" y="1074" type="line"/>
      <point x="446" y="710" type="line"/>
      <point x="24" y="328" type="line"/>
    </contour>
  </outline>
</glyph>
<glyph name="Psi" format="2">
  <advance width="1856"/>
  <unicode hex="03A8"/>
  <outline>
    <contour>
      <point x="619" y="0" type="line"/>
      <point x="1019" y="0" type="line"/>
      <point x="1071" y="245" type="line"/>
      <point x="1492" y="273"/>
      <point x="1744" y="492"/>
      <point x="1828" y="887" type="curve" smooth="yes"/>
      <point x="1862" y="1048"/>
      <point x="1870" y="1255"/>
      <point x="1842" y="1420" type="curve"/>
      <point x="1448" y="1367" type="line"/>
      <point x="1471" y="1223"/>
      <point x="1472" y="1067"/>
      <point x="1444" y="936" type="curve" smooth="yes"/>
      <point x="1407" y="762"/>
      <point x="1318" y="646"/>
      <point x="1146" y="606" type="curve"/>
      <point x="1313" y="1400" type="line"/>
      <point x="913" y="1400" type="line"/>
      <point x="749" y="618" type="line"/>
      <point x="648" y="655"/>
      <point x="585" y="729"/>
      <point x="585" y="873" type="curve" smooth="yes"/>
      <point x="585" y="1010"/>
      <point x="659" y="1247"/>
      <point x="750" y="1357" type="curve"/>
      <point x="381" y="1420" type="line"/>
      <point x="267" y="1289"/>
      <point x="192" y="1016"/>
      <point x="192" y="830" type="curve" smooth="yes"/>
      <point x="192" y="490"/>
      <point x="362" y="325"/>
      <point x="675" y="266" type="curve"/>
    </contour>
  </outline>
</glyph>
<glyph name="alpha" format="2">
  <advance width="1410"/>
  <unicode hex="03B1"/>
  <anchor x="845" y="1040" name="top"/>
  <outline>
    <contour>
      <point x="470" y="-30" type="curve" smooth="yes"/>
      <point x="616" y="-30"/>
      <point x="755" y="30"/>
      <point x="835" y="150" type="curve"/>
      <point x="857" y="-40"/>
      <point x="1083" y="-71"/>
      <point x="1265" y="17" type="curve"/>
      <point x="1265" y="318" type="line"/>
      <point x="1117" y="278"/>
      <point x="1129" y="372"/>
      <point x="1189" y="520" type="curve" smooth="yes"/>
      <point x="1399" y="1040" type="line"/>
      <point x="1033" y="1040" type="line"/>
      <point x="977" y="890" type="line"/>
      <point x="885" y="1016"/>
      <point x="754" y="1070"/>
      <point x="614" y="1070" type="curve" smooth="yes"/>
      <point x="280" y="1070"/>
      <point x="50" y="776"/>
      <point x="50" y="445" type="curve" smooth="yes"/>
      <point x="50" y="167"/>
      <point x="200" y="-30"/>
    </contour>
    <contour>
      <point x="575" y="310" type="curve" smooth="yes"/>
      <point x="499" y="310"/>
      <point x="433" y="362"/>
      <point x="433" y="472" type="curve" smooth="yes"/>
      <point x="433" y="588"/>
      <point x="507" y="730"/>
      <point x="635" y="730" type="curve" smooth="yes"/>
      <point x="739" y="730"/>
      <point x="785" y="638"/>
      <point x="785" y="514" type="curve"/>
      <point x="757" y="378"/>
      <point x="661" y="310"/>
    </contour>
  </outline>
</glyph>
<glyph name="delta" format="2">
  <advance width="1243"/>
  <unicode hex="03B4"/>
  <outline>
    <contour>
      <point x="559" y="-30" type="curve" smooth="yes"/>
      <point x="907" y="-30"/>
      <point x="1179" y="178"/>
      <point x="1179" y="514" type="curve" smooth="yes"/>
      <point x="1179" y="748"/>
      <point x="1061" y="840"/>
      <point x="899" y="934" type="curve" smooth="yes"/>
      <point x="759" y="1014"/>
      <point x="687" y="1040"/>
      <point x="687" y="1086" type="curve" smooth="yes"/>
      <point x="687" y="1134"/>
      <point x="739" y="1160"/>
      <point x="849" y="1160" type="curve" smooth="yes"/>
      <point x="891" y="1160"/>
      <point x="987" y="1156"/>
      <point x="1107" y="1076" type="curve"/>
      <point x="1249" y="1382" type="line"/>
      <point x="1119" y="1450"/>
      <point x="969" y="1470"/>
      <point x="851" y="1470" type="curve" smooth="yes"/>
      <point x="563" y="1470"/>
      <point x="319" y="1364"/>
      <point x="319" y="1110" type="curve" smooth="yes"/>
      <point x="319" y="968"/>
      <point x="403" y="892"/>
      <point x="435" y="874" type="curve"/>
      <point x="193" y="814"/>
      <point x="41" y="658"/>
      <point x="41" y="428" type="curve" smooth="yes"/>
      <point x="41" y="186"/>
      <point x="219" y="-30"/>
    </contour>
    <contour>
      <point x="593" y="302" type="curve" smooth="yes"/>
      <point x="483" y="302"/>
      <point x="433" y="382"/>
      <point x="433" y="464" type="curve" smooth="yes"/>
      <point x="433" y="572"/>
      <point x="521" y="626"/>
      <point x="649" y="666" type="curve"/>
      <point x="733" y="634"/>
      <point x="787" y="556"/>
      <point x="787" y="474" type="curve" smooth="yes"/>
      <point x="787" y="366"/>
      <point x="693" y="302"/>
    </contour>
  </outline>
</glyph>
<glyph name="epsilon" format="2">
  <advance width="1095"/>
  <unicode hex="03B5"/>
  <anchor x="670" y="1040" name="top"/>
  <outline>
    <contour>
      <point x="498" y="-30" type="curve" smooth="yes"/>
      <point x="686" y="-30"/>
      <point x="828" y="10"/>
      <point x="966" y="62" type="curve"/>
      <point x="908" y="354" type="line"/>
      <point x="774" y="300"/>
      <point x="672" y="276"/>
      <point x="564" y="276" type="curve" smooth="yes"/>
      <point x="442" y="276"/>
      <point x="422" y="304"/>
      <point x="422" y="334" type="curve" smooth="yes"/>
      <point x="422" y="390"/>
      <point x="490" y="404"/>
      <point x="562" y="404" type="curve" smooth="yes"/>
      <point x="720" y="404" type="line"/>
      <point x="772" y="652" type="line"/>
      <point x="612" y="652" type="line" smooth="yes"/>
      <point x="532" y="652"/>
      <point x="498" y="662"/>
      <point x="498" y="698" type="curve" smooth="yes"/>
      <point x="498" y="752"/>
      <point x="572" y="772"/>
      <point x="668" y="772" type="curve" smooth="yes"/>
      <point x="762" y="772"/>
      <point x="864" y="750"/>
      <point x="944" y="688" type="curve"/>
      <point x="1114" y="982" type="line"/>
      <point x="986" y="1046"/>
      <point x="844" y="1070"/>
      <point x="680" y="1070" type="curve" smooth="yes"/>
      <point x="398" y="1070"/>
      <point x="132" y="974"/>
      <point x="132" y="746" type="curve" smooth="yes"/>
      <point x="132" y="666"/>
      <point x="166" y="590"/>
      <point x="268" y="540" type="curve"/>
      <point x="118" y="504"/>
      <point x="12" y="406"/>
      <point x="12" y="270" type="curve" smooth="yes"/>
      <point x="12" y="74"/>
      <point x="212" y="-30"/>
    </contour>
  </outline>
</glyph>
<glyph name="zeta" format="2">
  <advance width="1062"/>
  <unicode hex="03B6"/>
  <outline>
    <contour>
      <point x="767" y="-450" type="line"/>
      <point x="868" y="-360"/>
      <point x="950" y="-196"/>
      <point x="950" y="-85" type="curve" smooth="yes"/>
      <point x="950" y="209"/>
      <point x="456" y="304"/>
      <point x="454" y="492" type="curve" smooth="yes"/>
      <point x="454" y="690"/>
      <point x="776" y="921"/>
      <point x="1175" y="1180" type="curve"/>
      <point x="1229" y="1440" type="line"/>
      <point x="284" y="1440" type="line"/>
      <point x="216" y="1112" type="line"/>
      <point x="623" y="1112" type="line"/>
      <point x="300" y="937"/>
      <point x="49" y="683"/>
      <point x="49" y="422" type="curve" smooth="yes"/>
      <point x="49" y="85"/>
      <point x="550" y="13"/>
      <point x="550" y="-184" type="curve" smooth="yes"/>
      <point x="550" y="-235"/>
      <point x="510" y="-304"/>
      <point x="422" y="-406" type="curve"/>
    </contour>
  </outline>
</glyph>
<glyph name="theta" format="2">
  <advance width="1296"/>
  <unicode hex="03B8"/>
  <outline>
    <contour>
      <point x="595" y="-30" type="curve" smooth="yes"/>
      <point x="1035" y="-30"/>
      <point x="1275" y="418"/>
      <point x="1275" y="886" type="curve" smooth="yes"/>
      <point x="1275" y="1250"/>
      <point x="1077" y="1470"/>
      <point x="791" y="1470" type="curve" smooth="yes"/>
      <point x="347" y="1470"/>
      <point x="107" y="1024"/>
      <point x="107" y="558" type="curve" smooth="yes"/>
      <point x="107" y="192"/>
      <point x="305" y="-30"/>
    </contour>
    <contour>
      <point x="621" y="310" type="curve" smooth="yes"/>
      <point x="503" y="310"/>
      <point x="487" y="408"/>
      <point x="507" y="564" type="curve"/>
      <point x="819" y="564" type="line"/>
      <point x="793" y="388"/>
      <point x="729" y="310"/>
    </contour>
    <contour>
      <point x="563" y="876" type="line"/>
      <point x="589" y="1052"/>
      <point x="653" y="1130"/>
      <point x="761" y="1130" type="curve" smooth="yes"/>
      <point x="879" y="1130"/>
      <point x="895" y="1032"/>
      <point x="875" y="876" type="curve"/>
    </contour>
  </outline>
</glyph>
<glyph name="iota" format="2">
  <advance width="764"/>
  <unicode hex="03B9"/>
  <anchor x="430" y="1040" name="top"/>
  <outline>
    <contour>
      <point x="420" y="-30" type="curve" smooth="yes"/>
      <point x="482" y="-30"/>
      <point x="554" y="-20"/>
      <point x="638" y="8" type="curve"/>
      <point x="638" y="318" type="line"/>
      <point x="612" y="310"/>
      <point x="588" y="306"/>
      <point x="568" y="306" type="curve" smooth="yes"/>
      <point x="508" y="306"/>
      <point x="480" y="346"/>
      <point x="496" y="416" type="curve" smooth="yes"/>
      <point x="630" y="1040" type="line"/>
      <point x="230" y="1040" type="line"/>
      <point x="84" y="356" type="line" smooth="yes"/>
      <point x="44" y="174"/>
      <point x="138" y="-30"/>
    </contour>
  </outline>
</glyph>
<glyph name="lambda" format="2">
  <advance width="1284"/>
  <unicode hex="03BB"/>
  <outline>
    <contour>
      <point x="-92" y="0" type="line"/>
      <point x="340" y="0" type="line"/>
      <point x="676" y="638" type="line"/>
      <point x="732" y="0" type="line"/>
      <point x="1154" y="0" type="line"/>
      <point x="968" y="1118" type="line" smooth="yes"/>
      <point x="921" y="1388"/>
      <point x="785" y="1470"/>
      <point x="550" y="1470" type="curve" smooth="yes"/>
      <point x="466" y="1470"/>
      <point x="360" y="1456"/>
      <point x="274" y="1430" type="curve"/>
      <point x="274" y="1110" type="line"/>
      <point x="336" y="1124"/>
      <point x="398" y="1132"/>
      <point x="440" y="1132" type="curve" smooth="yes"/>
      <point x="504" y="1132"/>
      <point x="558" y="1114"/>
      <point x="560" y="1056" type="curve" smooth="yes"/>
      <point x="560" y="1040" type="line"/>
    </contour>
  </outline>
</glyph>
<glyph name="nu" format="2">
  <advance width="1255"/>
  <unicode hex="03BD"/>
  <outline>
    <contour>
      <point x="246" y="0" type="line"/>
      <point x="682" y="0" type="line"/>
      <point x="949" y="300"/>
      <point x="1173" y="656"/>
      <point x="1292" y="995" type="curve"/>
      <point x="888" y="1061" type="line"/>
      <point x="802" y="814"/>
      <point x="661" y="503"/>
      <point x="507" y="324" type="curve"/>
      <point x="579" y="228" type="line"/>
      <point x="540" y="1040" type="line"/>
      <point x="120" y="1040" type="line"/>
    </contour>
  </outline>
</glyph>
<glyph name="pi" format="2">
  <advance width="1409"/>
  <unicode hex="03C0"/>
  <outline>
    <contour>
      <point x="1033" y="-30" type="curve" smooth="yes"/>
      <point x="1087" y="-30"/>
      <point x="1163" y="-22"/>
      <point x="1249" y="4" type="curve"/>
      <point x="1249" y="318" type="line"/>
      <point x="1225" y="310"/>
      <point x="1201" y="306"/>
      <point x="1183" y="306" type="curve" smooth="yes"/>
      <point x="1129" y="306"/>
      <point x="1101" y="342"/>
      <point x="1119" y="426" type="curve" smooth="yes"/>
      <point x="1179" y="712" type="line"/>
      <point x="1365" y="712" type="line"/>
      <point x="1435" y="1040" type="line"/>
      <point x="147" y="1040" type="line"/>
      <point x="77" y="712" type="line"/>
      <point x="239" y="712" type="line"/>
      <point x="61" y="0" type="line"/>
      <point x="455" y="0" type="line"/>
      <point x="633" y="712" type="line"/>
      <point x="797" y="712" type="line"/>
      <point x="731" y="406" type="line" smooth="yes"/>
      <point x="669" y="110"/>
      <point x="815" y="-30"/>
    </contour>
  </outline>
</glyph>
<glyph name="sigmafinal" format="2">
  <advance width="1088"/>
  <unicode hex="03C2"/>
  <outline>
    <contour>
      <point x="764" y="-450" type="line"/>
      <point x="865" y="-360"/>
      <point x="947" y="-196"/>
      <point x="947" y="-85" type="curve" smooth="yes"/>
      <point x="947" y="246"/>
      <point x="458" y="312"/>
      <point x="456" y="547" type="curve" smooth="yes"/>
      <point x="455" y="655"/>
      <point x="535" y="730"/>
      <point x="670" y="730" type="curve" smooth="yes"/>
      <point x="771" y="730"/>
      <point x="864" y="700"/>
      <point x="934" y="628" type="curve"/>
      <point x="1154" y="906" type="line"/>
      <point x="1034" y="1012"/>
      <point x="864" y="1070"/>
      <point x="670" y="1070" type="curve" smooth="yes"/>
      <point x="340" y="1070"/>
      <point x="58" y="829"/>
      <point x="58" y="498" type="curve" smooth="yes"/>
      <point x="58" y="90"/>
      <point x="547" y="32"/>
      <point x="547" y="-184" type="curve" smooth="yes"/>
      <point x="547" y="-235"/>
      <point x="507" y="-304"/>
      <point x="419" y="-406" type="curve"/>
    </contour>
  </outline>
</glyph>
<glyph name="tau" format="2">
  <advance width="969"/>
  <unicode hex="03C4"/>
  <outline>
    <contour>
      <point x="536" y="-30" type="curve" smooth="yes"/>
      <point x="590" y="-30"/>
      <point x="688" y="-24"/>
      <point x="778" y="4" type="curve"/>
      <point x="778" y="324" type="line"/>
      <point x="750" y="314"/>
      <point x="724" y="310"/>
      <point x="704" y="310" type="curve" smooth="yes"/>
      <point x="638" y="310"/>
      <point x="610" y="354"/>
      <point x="628" y="438" type="curve" smooth="yes"/>
      <point x="684" y="704" type="line"/>
      <point x="976" y="704" type="line"/>
      <point x="1048" y="1040" type="line"/>
      <point x="110" y="1040" type="line"/>
      <point x="38" y="704" type="line"/>
      <point x="284" y="704" type="line"/>
      <point x="216" y="384" type="line" smooth="yes"/>
      <point x="156" y="104"/>
      <point x="290" y="-30"/>
    </contour>
  </outline>
</glyph>
<glyph name="upsilon" format="2">
  <advance width="1294"/>
  <unicode hex="03C5"/>
  <anchor x="734" y="1040" name="top"/>
  <outline>
    <contour>
      <point x="586" y="-30" type="curve" smooth="yes"/>
      <point x="997" y="-30"/>
      <point x="1219" y="266"/>
      <point x="1219" y="676" type="curve" smooth="yes"/>
      <point x="1219" y="802"/>
      <point x="1196" y="933"/>
      <point x="1153" y="1060" type="curve"/>
      <point x="783" y="940" type="line"/>
      <point x="812" y="863"/>
      <point x="828" y="780"/>
      <point x="828" y="695" type="curve" smooth="yes"/>
      <point x="828" y="497"/>
      <point x="768" y="310"/>
      <point x="632" y="310" type="curve" smooth="yes"/>
      <point x="534" y="310"/>
      <point x="494" y="370"/>
      <point x="516" y="474" type="curve" smooth="yes"/>
      <point x="636" y="1040" type="line"/>
      <point x="230" y="1040" type="line"/>
      <point x="124" y="542" type="line" smooth="yes"/>
      <point x="48" y="182"/>
      <point x="222" y="-30"/>
    </contour>
  </outline>
</glyph>
<glyph name="phi" format="2">
  <advance width="1624"/>
  <unicode hex="03C6"/>
  <outline>
    <contour>
      <point x="406" y="-420" type="line"/>
      <point x="794" y="-420" type="line"/>
      <point x="1011" y="600" type="line" smooth="yes"/>
      <point x="1029" y="686"/>
      <point x="1064" y="730"/>
      <point x="1114" y="730" type="curve" smooth="yes"/>
      <point x="1171" y="730"/>
      <point x="1202" y="692"/>
      <point x="1202" y="622" type="curve" smooth="yes"/>
      <point x="1202" y="415"/>
      <point x="1044" y="282"/>
      <point x="777" y="282" type="curve" smooth="yes"/>
      <point x="571" y="282"/>
      <point x="456" y="366"/>
      <point x="456" y="554" type="curve" smooth="yes"/>
      <point x="456" y="704"/>
      <point x="536" y="839"/>
      <point x="648" y="940" type="curve"/>
      <point x="356" y="1060" type="line"/>
      <point x="191" y="966"/>
      <point x="70" y="741"/>
      <point x="70" y="531" type="curve" smooth="yes"/>
      <point x="70" y="171"/>
      <point x="278" y="-25"/>
      <point x="774" y="-25" type="curve" smooth="yes"/>
      <point x="1295" y="-25"/>
      <point x="1582" y="257"/>
      <point x="1582" y="666" type="curve" smooth="yes"/>
      <point x="1582" y="917"/>
      <point x="1426" y="1070"/>
      <point x="1158" y="1070" type="curve" smooth="yes"/>
      <point x="849" y="1070"/>
      <point x="682" y="876"/>
      <point x="609" y="534" type="curve" smooth="yes"/>
    </contour>
  </outline>
</glyph>
<glyph name="chi" format="2">
  <advance width="1270"/>
  <unicode hex="03C7"/>
  <outline>
    <contour>
      <point x="-158" y="-420" type="line"/>
      <point x="314" y="-420" type="line"/>
      <point x="648" y="154" type="line"/>
      <point x="524" y="154" type="line"/>
      <point x="650" y="-420" type="line"/>
      <point x="1090" y="-420" type="line"/>
      <point x="832" y="474" type="line"/>
      <point x="748" y="150" type="line"/>
      <point x="1380" y="1040" type="line"/>
      <point x="914" y="1040" type="line"/>
      <point x="576" y="492" type="line"/>
      <point x="716" y="456" type="line"/>
      <point x="626" y="854" type="line" smooth="yes"/>
      <point x="583" y="1046"/>
      <point x="428" y="1126"/>
      <point x="104" y="1050" type="curve"/>
      <point x="104" y="706" type="line"/>
      <point x="228" y="738"/>
      <point x="275" y="704"/>
      <point x="302" y="598" type="curve" smooth="yes"/>
      <point x="414" y="164" type="line"/>
      <point x="470" y="466" type="line"/>
    </contour>
  </outline>
</glyph>
<glyph name="psi" format="2">
  <advance width="1745"/>
  <unicode hex="03C8"/>
  <outline>
    <contour>
      <point x="466" y="-420" type="line"/>
      <point x="866" y="-420" type="line"/>
      <point x="948" y="-30" type="line"/>
      <point x="1406" y="-30"/>
      <point x="1653" y="266"/>
      <point x="1653" y="676" type="curve" smooth="yes"/>
      <point x="1653" y="802"/>
      <point x="1630" y="933"/>
      <point x="1587" y="1060" type="curve"/>
      <point x="1217" y="940" type="line"/>
      <point x="1246" y="863"/>
      <point x="1262" y="780"/>
      <point x="1262" y="695" type="curve" smooth="yes"/>
      <point x="1262" y="497"/>
      <point x="1186" y="310"/>
      <point x="1012" y="310" type="curve"/>
      <point x="1218" y="1280" type="line"/>
      <point x="834" y="1280" type="line"/>
      <point x="628" y="310" type="line"/>
      <point x="524" y="310"/>
      <point x="470" y="358"/>
      <point x="512" y="550" type="curve" smooth="yes"/>
      <point x="616" y="1040" type="line"/>
      <point x="230" y="1040" type="line"/>
      <point x="158" y="702" type="line" smooth="yes"/>
      <point x="44" y="166"/>
      <point x="192" y="-6"/>
      <point x="548" y="-30" type="curve"/>
    </contour>
  </outline>
</glyph>
<glyph name="omega" format="2">
  <advance width="1770"/>
  <unicode hex="03C9"/>
  <anchor x="776" y="0" name="bottom"/>
  <anchor x="994" y="1040" name="top"/>
  <outline>
    <contour>
      <point x="453" y="-29" type="curve" smooth="yes"/>
      <point x="582" y="-29"/>
      <point x="704" y="24"/>
      <point x="813" y="136" type="curve"/>
      <point x="892" y="26"/>
      <point x="1002" y="-29"/>
      <point x="1145" y="-29" type="curve" smooth="yes"/>
      <point x="1490" y="-29"/>
      <point x="1676" y="307"/>
      <point x="1676" y="676" type="curve" smooth="yes"/>
      <point x="1676" y="802"/>
      <point x="1653" y="933"/>
      <point x="1610" y="1060" type="curve"/>
      <point x="1240" y="940" type="line"/>
      <point x="1269" y="863"/>
      <point x="1285" y="780"/>
      <point x="1285" y="695" type="curve" smooth="yes"/>
      <point x="1285" y="545"/>
      <point x="1233" y="330"/>
      <point x="1114" y="330" type="curve" smooth="yes"/>
      <point x="1035" y="330"/>
      <point x="1033" y="392"/>
      <point x="1055" y="500" type="curve" smooth="yes"/>
      <point x="1122" y="820" type="line"/>
      <point x="774" y="820" type="line"/>
      <point x="707" y="500" type="line" smooth="yes"/>
      <point x="680" y="370"/>
      <point x="638" y="330"/>
      <point x="581" y="330" type="curve" smooth="yes"/>
      <point x="522" y="330"/>
      <point x="501" y="382"/>
      <point x="501" y="457" type="curve" smooth="yes"/>
      <point x="501" y="614"/>
      <point x="590" y="807"/>
      <point x="706" y="940" type="curve"/>
      <point x="388" y="1060" type="line"/>
      <point x="208" y="915"/>
      <point x="93" y="619"/>
      <point x="93" y="376" type="curve" smooth="yes"/>
      <point x="93" y="123"/>
      <point x="230" y="-29"/>
    </contour>
  </outline>
</glyph>
<glyph name="kaiSymbol" format="2">
  <advance width="1244"/>
  <unicode hex="03D7"/>
  <outline>
    <contour>
      <point x="352" y="-430" type="line"/>
      <point x="664" y="-478"/>
      <point x="826" y="-394"/>
      <point x="1116" y="-84" type="curve"/>
      <point x="900" y="592" type="line"/>
      <point x="950" y="626" type="line" smooth="yes"/>
      <point x="1046" y="692"/>
      <point x="1102" y="720"/>
      <point x="1224" y="704" type="curve"/>
      <point x="1244" y="1066" type="line"/>
      <point x="1092" y="1088"/>
      <point x="958" y="1040"/>
      <point x="790" y="914" type="curve" smooth="yes"/>
      <point x="578" y="756" type="line"/>
      <point x="640" y="1040" type="line"/>
      <point x="240" y="1040" type="line"/>
      <point x="18" y="0" type="line"/>
      <point x="418" y="0" type="line"/>
      <point x="484" y="308" type="line"/>
      <point x="582" y="374" type="line"/>
      <point x="681" y="-9" type="line"/>
      <point x="578" y="-94"/>
      <point x="541" y="-114"/>
      <point x="404" y="-106" type="curve"/>
    </contour>
  </outline>
</glyph>
<glyph name="E-cy" format="2">
  <advance width="1439"/>
  <unicode hex="0404"/>
  <outline>
    <contour>
      <point x="816" y="-30" type="curve" smooth="yes"/>
      <point x="1028" y="-30"/>
      <point x="1194" y="24"/>
      <point x="1320" y="102" type="curve"/>
      <point x="1210" y="434" type="line"/>
      <point x="1098" y="364"/>
      <point x="976" y="334"/>
      <point x="866" y="334" type="curve" smooth="yes"/>
      <point x="630" y="334"/>
      <point x="500" y="452"/>
      <point x="500" y="644" type="curve" smooth="yes"/>
      <point x="500" y="888"/>
      <point x="660" y="1066"/>
      <point x="930" y="1066" type="curve" smooth="yes"/>
      <point x="1076" y="1066"/>
      <point x="1186" y="1018"/>
      <point x="1248" y="922" type="curve"/>
      <point x="1506" y="1238" type="line"/>
      <point x="1350" y="1378"/>
      <point x="1184" y="1430"/>
      <point x="936" y="1430" type="curve" smooth="yes"/>
      <point x="446" y="1430"/>
      <point x="110" y="1070"/>
      <point x="110" y="610" type="curve" smooth="yes"/>
      <point x="110" y="204"/>
      <point x="430" y="-30"/>
    </contour>
    <contour>
      <point x="418" y="562" type="line"/>
      <point x="1086" y="562" type="line"/>
      <point x="1150" y="864" type="line"/>
      <point x="480" y="864" type="line"/>
    </contour>
  </outline>
</glyph>
<glyph name="Lje-cy" format="2">
  <advance width="2159"/>
  <unicode hex="0409"/>
  <outline>
    <contour>
      <point x="44" y="-20" type="line"/>
      <point x="486" y="64"/>
      <point x="646" y="336"/>
      <point x="782" y="1012" type="curve" smooth="yes"/>
      <point x="786" y="1032" type="line"/>
      <point x="1072" y="1032" type="line"/>
      <point x="1550" y="1400" type="line"/>
      <point x="484" y="1400" type="line"/>
      <point x="402" y="1012" type="line" smooth="yes"/>
      <point x="292" y="496"/>
      <point x="218" y="400"/>
      <point x="-8" y="360" type="curve"/>
    </contour>
    <contour>
      <point x="1320" y="294" type="line"/>
      <point x="1376" y="566" type="line"/>
      <point x="1504" y="566" type="line" smooth="yes"/>
      <point x="1618" y="566"/>
      <point x="1666" y="514"/>
      <point x="1668" y="442" type="curve" smooth="yes"/>
      <point x="1670" y="370"/>
      <point x="1618" y="294"/>
      <point x="1484" y="294" type="curve" smooth="yes"/>
    </contour>
    <contour>
      <point x="852" y="0" type="line"/>
      <point x="1486" y="0" type="line" smooth="yes"/>
      <point x="1902" y="0"/>
      <point x="2104" y="240"/>
      <point x="2102" y="494" type="curve" smooth="yes"/>
      <point x="2100" y="712"/>
      <point x="1938" y="908"/>
      <point x="1576" y="908" type="curve" smooth="yes"/>
      <point x="1448" y="908" type="line"/>
      <point x="1550" y="1400" type="line"/>
      <point x="1148" y="1400" type="line"/>
    </contour>
  </outline>
</glyph>
<glyph name="Nje-cy" format="2">
  <advance width="2197"/>
  <unicode hex="040A"/>
  <outline>
    <contour>
      <point x="880" y="0" type="line"/>
      <point x="1514" y="0" type="line" smooth="yes"/>
      <point x="1930" y="0"/>
      <point x="2132" y="240"/>
      <point x="2130" y="494" type="curve" smooth="yes"/>
      <point x="2128" y="712"/>
      <point x="1966" y="908"/>
      <point x="1604" y="908" type="curve" smooth="yes"/>
      <point x="570" y="908" type="line"/>
      <point x="502" y="566" type="line"/>
      <point x="1532" y="566" type="line" smooth="yes"/>
      <point x="1646" y="566"/>
      <point x="1694" y="514"/>
      <point x="1696" y="442" type="curve" smooth="yes"/>
      <point x="1698" y="370"/>
      <point x="1646" y="294"/>
      <point x="1512" y="294" type="curve" smooth="yes"/>
      <point x="1348" y="294" type="line"/>
      <point x="1578" y="1400" type="line"/>
      <point x="1176" y="1400" type="line"/>
    </contour>
    <contour>
      <point x="48" y="0" type="line"/>
      <point x="452" y="0" type="line"/>
      <point x="748" y="1400" type="line"/>
      <point x="344" y="1400" type="line"/>
    </contour>
  </outline>
</glyph>
<glyph name="Tshe-cy" format="2">
  <advance width="1712"/>
  <unicode hex="040B"/>
  <outline>
    <contour>
      <point x="142" y="1040" type="line"/>
      <point x="1464" y="1040" type="line"/>
      <point x="1540" y="1400" type="line"/>
      <point x="218" y="1400" type="line"/>
    </contour>
    <contour>
      <point x="284" y="0" type="line"/>
      <point x="688" y="0" type="line"/>
      <point x="800" y="540" type="line"/>
      <point x="866" y="558"/>
      <point x="926" y="568"/>
      <point x="1004" y="568" type="curve" smooth="yes"/>
      <point x="1156" y="568"/>
      <point x="1226" y="502"/>
      <point x="1186" y="318" type="curve" smooth="yes"/>
      <point x="1120" y="0" type="line"/>
      <point x="1524" y="0" type="line"/>
      <point x="1602" y="372" type="line" smooth="yes"/>
      <point x="1686" y="764"/>
      <point x="1492" y="920"/>
      <point x="1162" y="920" type="curve" smooth="yes"/>
      <point x="1064" y="920"/>
      <point x="972" y="902"/>
      <point x="870" y="870" type="curve"/>
      <point x="984" y="1400" type="line"/>
      <point x="580" y="1400" type="line"/>
    </contour>
  </outline>
</glyph>
<glyph name="De-cy" format="2">
  <advance width="1754"/>
  <unicode hex="0414"/>
  <outline>
    <contour>
      <point x="962" y="0" type="line"/>
      <point x="1366" y="0" type="line"/>
      <point x="1664" y="1400" type="line"/>
      <point x="514" y="1400" type="line"/>
      <point x="432" y="1012" type="line" smooth="yes"/>
      <point x="326" y="520"/>
      <point x="248" y="396"/>
      <point x="12" y="346" type="curve"/>
      <point x="74" y="2" type="line"/>
      <point x="486" y="92"/>
      <point x="680" y="396"/>
      <point x="812" y="1012" type="curve" smooth="yes"/>
      <point x="816" y="1032" type="line"/>
      <point x="1182" y="1032" type="line"/>
    </contour>
    <contour>
      <point x="-136" y="-350" type="line"/>
      <point x="248" y="-350" type="line"/>
      <point x="322" y="0" type="line"/>
      <point x="1210" y="0" type="line"/>
      <point x="1136" y="-350" type="line"/>
      <point x="1520" y="-350" type="line"/>
      <point x="1672" y="368" type="line"/>
      <point x="344" y="368" type="line"/>
      <point x="190" y="338" type="line"/>
      <point x="12" y="346" type="line"/>
    </contour>
  </outline>
</glyph>
<glyph name="Ze-cy" format="2">
  <advance width="1295"/>
  <unicode hex="0417"/>
  <anchor x="562" y="0" name="bottom"/>
  <anchor x="808" y="1400" name="top"/>
  <outline>
    <contour>
      <point x="568" y="-30" type="curve" smooth="yes"/>
      <point x="926" y="-30"/>
      <point x="1208" y="154"/>
      <point x="1208" y="438" type="curve" smooth="yes"/>
      <point x="1208" y="558"/>
      <point x="1140" y="672"/>
      <point x="1012" y="732" type="curve"/>
      <point x="1164" y="792"/>
      <point x="1278" y="922"/>
      <point x="1278" y="1080" type="curve" smooth="yes"/>
      <point x="1278" y="1328"/>
      <point x="1014" y="1430"/>
      <point x="736" y="1430" type="curve" smooth="yes"/>
      <point x="520" y="1430"/>
      <point x="342" y="1376"/>
      <point x="202" y="1278" type="curve"/>
      <point x="322" y="972" type="line"/>
      <point x="392" y="1024"/>
      <point x="510" y="1066"/>
      <point x="644" y="1066" type="curve" smooth="yes"/>
      <point x="758" y="1066"/>
      <point x="850" y="1044"/>
      <point x="850" y="965" type="curve" smooth="yes"/>
      <point x="850" y="888"/>
      <point x="768" y="864"/>
      <point x="648" y="864" type="curve" smooth="yes"/>
      <point x="392" y="864" type="line"/>
      <point x="328" y="562" type="line"/>
      <point x="614" y="562" type="line" smooth="yes"/>
      <point x="728" y="562"/>
      <point x="782" y="516"/>
      <point x="782" y="458" type="curve" smooth="yes"/>
      <point x="782" y="382"/>
      <point x="690" y="336"/>
      <point x="566" y="336" type="curve" smooth="yes"/>
      <point x="442" y="336"/>
      <point x="290" y="378"/>
      <point x="192" y="460" type="curve"/>
      <point x="-32" y="162" type="line"/>
      <point x="140" y="32"/>
      <point x="348" y="-30"/>
    </contour>
  </outline>
</glyph>
<glyph name="El-cy" format="2">
  <advance width="1612"/>
  <unicode hex="041B"/>
  <outline>
    <contour>
      <point x="74" y="-20" type="line"/>
      <point x="516" y="64"/>
      <point x="676" y="336"/>
      <point x="812" y="1012" type="curve" smooth="yes"/>
      <point x="816" y="1032" type="line"/>
      <point x="1162" y="1032" type="line"/>
      <point x="944" y="0" type="line"/>
      <point x="1344" y="0" type="line"/>
      <point x="1640" y="1400" type="line"/>
      <point x="514" y="1400" type="line"/>
      <point x="432" y="1012" type="line" smooth="yes"/>
      <point x="322" y="496"/>
      <point x="248" y="400"/>
      <point x="22" y="360" type="curve"/>
    </contour>
  </outline>
</glyph>
<glyph name="U-cy" format="2">
  <advance width="1392"/>
  <unicode hex="0423"/>
  <anchor x="918" y="1400" name="top"/>
  <outline>
    <contour>
      <point x="118" y="-30" type="line"/>
      <point x="508" y="40"/>
      <point x="776" y="198"/>
      <point x="1098" y="664" type="curve" smooth="yes"/>
      <point x="1606" y="1400" type="line"/>
      <point x="1122" y="1400" type="line"/>
      <point x="750" y="826" type="line" smooth="yes"/>
      <point x="550" y="518"/>
      <point x="350" y="382"/>
      <point x="58" y="336" type="curve"/>
    </contour>
    <contour>
      <point x="564" y="360" type="line"/>
      <point x="908" y="668" type="line"/>
      <point x="718" y="1400" type="line"/>
      <point x="232" y="1400" type="line"/>
    </contour>
  </outline>
</glyph>
<glyph name="Ef-cy" format="2">
  <advance width="1868"/>
  <unicode hex="0424"/>
  <outline>
    <contour>
      <point x="610" y="-72" type="line"/>
      <point x="1010" y="-72" type="line"/>
      <point x="1046" y="97" type="line"/>
      <point x="1469" y="99"/>
      <point x="1776" y="331"/>
      <point x="1834" y="693" type="curve" smooth="yes"/>
      <point x="1888" y="1029"/>
      <point x="1672" y="1284"/>
      <point x="1303" y="1320" type="curve"/>
      <point x="1338" y="1488" type="line"/>
      <point x="938" y="1488" type="line"/>
      <point x="904" y="1328" type="line"/>
      <point x="481" y="1326"/>
      <point x="175" y="1094"/>
      <point x="116" y="732" type="curve" smooth="yes"/>
      <point x="62" y="396"/>
      <point x="278" y="141"/>
      <point x="647" y="105" type="curve"/>
    </contour>
    <contour>
      <point x="716" y="432" type="line"/>
      <point x="557" y="454"/>
      <point x="492" y="546"/>
      <point x="518" y="712" type="curve" smooth="yes"/>
      <point x="544" y="884"/>
      <point x="663" y="993"/>
      <point x="834" y="999" type="curve"/>
    </contour>
    <contour>
      <point x="1116" y="426" type="curve"/>
      <point x="1234" y="993" type="line"/>
      <point x="1393" y="971"/>
      <point x="1458" y="879"/>
      <point x="1432" y="713" type="curve" smooth="yes"/>
      <point x="1406" y="541"/>
      <point x="1287" y="432"/>
    </contour>
  </outline>
</glyph>
<glyph name="Hardsign-cy" format="2">
  <advance width="1614"/>
  <unicode hex="042A"/>
  <guideline x="389" y="700" angle="180"/>
  <anchor x="778" y="1400" name="top"/>
  <outline>
    <contour>
      <point x="500" y="1032" type="line"/>
      <point x="978" y="1400" type="line"/>
      <point x="218" y="1400" type="line"/>
      <point x="140" y="1032" type="line"/>
    </contour>
    <contour>
      <point x="280" y="0" type="line"/>
      <point x="914" y="0" type="line" smooth="yes"/>
      <point x="1330" y="0"/>
      <point x="1536" y="276"/>
      <point x="1536" y="534" type="curve" smooth="yes"/>
      <point x="1536" y="758"/>
      <point x="1378" y="968"/>
      <point x="1016" y="968" type="curve" smooth="yes"/>
      <point x="884" y="968" type="line"/>
      <point x="978" y="1400" type="line"/>
      <point x="576" y="1400" type="line"/>
    </contour>
    <contour>
      <point x="756" y="334" type="line"/>
      <point x="816" y="626" type="line"/>
      <point x="944" y="626" type="line" smooth="yes"/>
      <point x="1054" y="626"/>
      <point x="1106" y="558"/>
      <point x="1106" y="488" type="curve" smooth="yes"/>
      <point x="1106" y="412"/>
      <point x="1048" y="334"/>
      <point x="920" y="334" type="curve" smooth="yes"/>
    </contour>
  </outline>
</glyph>
<glyph name="be-cy" format="2">
  <advance width="1283"/>
  <unicode hex="0431"/>
  <outline>
    <contour>
      <point x="632" y="-30" type="curve" smooth="yes"/>
      <point x="969" y="-30"/>
      <point x="1209" y="210"/>
      <point x="1209" y="510" type="curve" smooth="yes"/>
      <point x="1209" y="766"/>
      <point x="1041" y="942"/>
      <point x="777" y="942" type="curve" smooth="yes"/>
      <point x="687" y="942"/>
      <point x="595" y="922"/>
      <point x="503" y="872" type="curve"/>
      <point x="555" y="1014"/>
      <point x="659" y="1056"/>
      <point x="805" y="1078" type="curve" smooth="yes"/>
      <point x="1255" y="1146" type="line"/>
      <point x="1273" y="1470" type="line"/>
      <point x="821" y="1398" type="line" smooth="yes"/>
      <point x="531" y="1352"/>
      <point x="237" y="1248"/>
      <point x="123" y="790" type="curve" smooth="yes"/>
      <point x="9" y="342"/>
      <point x="225" y="-30"/>
    </contour>
    <contour>
      <point x="641" y="310" type="curve" smooth="yes"/>
      <point x="553" y="310"/>
      <point x="489" y="374"/>
      <point x="489" y="466" type="curve" smooth="yes"/>
      <point x="489" y="572"/>
      <point x="569" y="650"/>
      <point x="665" y="650" type="curve" smooth="yes"/>
      <point x="753" y="650"/>
      <point x="819" y="586"/>
      <point x="819" y="494" type="curve" smooth="yes"/>
      <point x="819" y="390"/>
      <point x="739" y="310"/>
    </contour>
  </outline>
</glyph>
<glyph name="ve-cy" format="2">
  <advance width="1216"/>
  <unicode hex="0432"/>
  <outline>
    <contour>
      <point x="22" y="0" type="line"/>
      <point x="590" y="0" type="line" smooth="yes"/>
      <point x="870" y="0"/>
      <point x="1108" y="112"/>
      <point x="1108" y="342" type="curve" smooth="yes"/>
      <point x="1108" y="490"/>
      <point x="968" y="586"/>
      <point x="732" y="596" type="curve"/>
      <point x="848" y="506" type="line"/>
      <point x="1014" y="550"/>
      <point x="1158" y="632"/>
      <point x="1158" y="802" type="curve" smooth="yes"/>
      <point x="1158" y="964"/>
      <point x="1004" y="1040"/>
      <point x="748" y="1040" type="curve" smooth="yes"/>
      <point x="240" y="1040" type="line"/>
    </contour>
    <contour>
      <point x="456" y="266" type="line"/>
      <point x="568" y="774" type="line"/>
      <point x="700" y="774" type="line" smooth="yes"/>
      <point x="754" y="774"/>
      <point x="788" y="754"/>
      <point x="788" y="718" type="curve" smooth="yes"/>
      <point x="788" y="670"/>
      <point x="748" y="644"/>
      <point x="686" y="644" type="curve" smooth="yes"/>
      <point x="504" y="644" type="line"/>
      <point x="454" y="400" type="line"/>
      <point x="630" y="400" type="line" smooth="yes"/>
      <point x="688" y="400"/>
      <point x="718" y="376"/>
      <point x="718" y="340" type="curve" smooth="yes"/>
      <point x="718" y="296"/>
      <point x="678" y="266"/>
      <point x="614" y="266" type="curve" smooth="yes"/>
    </contour>
  </outline>
</glyph>
<glyph name="de-cy" format="2">
  <advance width="1486"/>
  <unicode hex="0434"/>
  <outline>
    <contour>
      <point x="748" y="0" type="line"/>
      <point x="1148" y="0" type="line"/>
      <point x="1368" y="1040" type="line"/>
      <point x="378" y="1040" type="line"/>
      <point x="320" y="778" type="line" smooth="yes"/>
      <point x="268" y="542"/>
      <point x="190" y="336"/>
      <point x="12" y="302" type="curve"/>
      <point x="20" y="20" type="line"/>
      <point x="428" y="92"/>
      <point x="604" y="418"/>
      <point x="664" y="698" type="curve" smooth="yes"/>
      <point x="670" y="728" type="line"/>
      <point x="902" y="728" type="line"/>
    </contour>
    <contour>
      <point x="-116" y="-300" type="line"/>
      <point x="248" y="-300" type="line"/>
      <point x="312" y="0" type="line"/>
      <point x="990" y="0" type="line"/>
      <point x="926" y="-300" type="line"/>
      <point x="1290" y="-300" type="line"/>
      <point x="1420" y="312" type="line"/>
      <point x="272" y="312" type="line"/>
      <point x="202" y="290" type="line"/>
      <point x="12" y="302" type="line"/>
    </contour>
  </outline>
</glyph>
<glyph name="ze-cy" format="2">
  <advance width="1106"/>
  <unicode hex="0437"/>
  <anchor x="435" y="0" name="bottom"/>
  <anchor x="633" y="1040" name="top"/>
  <outline>
    <contour>
      <point x="501" y="-30" type="curve" smooth="yes"/>
      <point x="761" y="-30"/>
      <point x="995" y="92"/>
      <point x="995" y="312" type="curve" smooth="yes"/>
      <point x="995" y="420"/>
      <point x="937" y="492"/>
      <point x="829" y="542" type="curve"/>
      <point x="947" y="572"/>
      <point x="1045" y="678"/>
      <point x="1045" y="790" type="curve" smooth="yes"/>
      <point x="1045" y="994"/>
      <point x="817" y="1076"/>
      <point x="601" y="1076" type="curve" smooth="yes"/>
      <point x="449" y="1076"/>
      <point x="283" y="1046"/>
      <point x="143" y="972" type="curve"/>
      <point x="221" y="710" type="line"/>
      <point x="303" y="760"/>
      <point x="409" y="784"/>
      <point x="519" y="784" type="curve" smooth="yes"/>
      <point x="595" y="784"/>
      <point x="687" y="766"/>
      <point x="679" y="708" type="curve" smooth="yes"/>
      <point x="671" y="666"/>
      <point x="631" y="662"/>
      <point x="527" y="662" type="curve" smooth="yes"/>
      <point x="349" y="662" type="line"/>
      <point x="291" y="394" type="line"/>
      <point x="481" y="394" type="line" smooth="yes"/>
      <point x="583" y="394"/>
      <point x="633" y="370"/>
      <point x="633" y="330" type="curve" smooth="yes"/>
      <point x="633" y="282"/>
      <point x="581" y="262"/>
      <point x="489" y="262" type="curve" smooth="yes"/>
      <point x="381" y="262"/>
      <point x="243" y="300"/>
      <point x="171" y="382" type="curve"/>
      <point x="-17" y="140" type="line"/>
      <point x="101" y="24"/>
      <point x="317" y="-30"/>
    </contour>
  </outline>
</glyph>
<glyph name="ii-cy" format="2">
  <advance width="1376"/>
  <unicode hex="0438"/>
  <anchor x="578" y="0" name="bottom"/>
  <anchor x="798" y="1040" name="top"/>
  <outline>
    <contour>
      <point x="20" y="0" type="line"/>
      <point x="380" y="0" type="line"/>
      <point x="850" y="460" type="line"/>
      <point x="756" y="0" type="line"/>
      <point x="1136" y="0" type="line"/>
      <point x="1356" y="1040" type="line"/>
      <point x="994" y="1040" type="line"/>
      <point x="524" y="590" type="line"/>
      <point x="620" y="1040" type="line"/>
      <point x="240" y="1040" type="line"/>
    </contour>
  </outline>
</glyph>
<glyph name="ka-cy" format="2">
  <advance width="1274"/>
  <unicode hex="043A"/>
  <guideline x="390" y="520" angle="90"/>
  <anchor x="1030" y="0" name="descender"/>
  <anchor x="758" y="1040" name="top"/>
  <outline>
    <contour>
      <point x="694" y="0" type="line"/>
      <point x="1150" y="0" type="line"/>
      <point x="908" y="538" type="line"/>
      <point x="1352" y="1040" type="line"/>
      <point x="916" y="1040" type="line"/>
      <point x="482" y="536" type="line"/>
    </contour>
    <contour>
      <point x="20" y="0" type="line"/>
      <point x="420" y="0" type="line"/>
      <point x="498" y="370" type="line"/>
      <point x="818" y="370" type="line"/>
      <point x="884" y="682" type="line"/>
      <point x="564" y="682" type="line"/>
      <point x="640" y="1040" type="line"/>
      <point x="240" y="1040" type="line"/>
    </contour>
  </outline>
</glyph>
<glyph name="el-cy" format="2">
  <advance width="1368"/>
  <unicode hex="043B"/>
  <outline>
    <contour>
      <point x="54" y="-30" type="line"/>
      <point x="444" y="32"/>
      <point x="592" y="336"/>
      <point x="664" y="698" type="curve" smooth="yes"/>
      <point x="670" y="728" type="line"/>
      <point x="882" y="728" type="line"/>
      <point x="728" y="0" type="line"/>
      <point x="1128" y="0" type="line"/>
      <point x="1348" y="1040" type="line"/>
      <point x="376" y="1040" type="line"/>
      <point x="304" y="698" type="line" smooth="yes"/>
      <point x="264" y="504"/>
      <point x="215" y="379"/>
      <point x="6" y="321" type="curve"/>
    </contour>
  </outline>
</glyph>
<glyph name="en-cy" format="2">
  <advance width="1380"/>
  <unicode hex="043D"/>
  <anchor x="1140" y="0" name="descender"/>
  <anchor x="800" y="1040" name="top"/>
  <outline>
    <contour>
      <point x="20" y="0" type="line"/>
      <point x="420" y="0" type="line"/>
      <point x="498" y="370" type="line"/>
      <point x="818" y="370" type="line"/>
      <point x="740" y="0" type="line"/>
      <point x="1140" y="0" type="line"/>
      <point x="1360" y="1040" type="line"/>
      <point x="960" y="1040" type="line"/>
      <point x="884" y="682" type="line"/>
      <point x="564" y="682" type="line"/>
      <point x="640" y="1040" type="line"/>
      <point x="240" y="1040" type="line"/>
    </contour>
  </outline>
</glyph>
<glyph name="pe-cy" format="2">
  <advance width="1380"/>
  <unicode hex="043F"/>
  <anchor x="800" y="1040" name="top"/>
  <outline>
    <contour>
      <point x="20" y="0" type="line"/>
      <point x="420" y="0" type="line"/>
      <point x="574" y="728" type="line"/>
      <point x="894" y="728" type="line"/>
      <point x="740" y="0" type="line"/>
      <point x="1140" y="0" type="line"/>
      <point x="1360" y="1040" type="line"/>
      <point x="240" y="1040" type="line"/>
    </contour>
  </outline>
</glyph>
<glyph name="che-cy" format="2">
  <advance width="1236"/>
  <unicode hex="0447"/>
  <anchor x="564" y="486" name="center"/>
  <anchor x="996" y="0" name="descender"/>
  <anchor x="596" y="0" name="descender_alt"/>
  <anchor x="682" y="1040" name="top"/>
  <outline>
    <contour>
      <point x="596" y="0" type="line"/>
      <point x="996" y="0" type="line"/>
      <point x="1216" y="1040" type="line"/>
      <point x="816" y="1040" type="line"/>
      <point x="730" y="644" type="line"/>
      <point x="692" y="636"/>
      <point x="654" y="626"/>
      <point x="594" y="626" type="curve" smooth="yes"/>
      <point x="498" y="626"/>
      <point x="474" y="680"/>
      <point x="496" y="782" type="curve" smooth="yes"/>
      <point x="550" y="1040" type="line"/>
      <point x="150" y="1040" type="line"/>
      <point x="84" y="730" type="line" smooth="yes"/>
      <point x="18" y="422"/>
      <point x="184" y="302"/>
      <point x="436" y="302" type="curve" smooth="yes"/>
      <point x="506" y="302"/>
      <point x="578" y="314"/>
      <point x="668" y="336" type="curve"/>
    </contour>
  </outline>
</glyph>
<glyph name="sha-cy" format="2">
  <advance width="1912"/>
  <unicode hex="0448"/>
  <anchor x="1672" y="0" name="descender"/>
  <outline>
    <contour>
      <point x="20" y="0" type="line"/>
      <point x="1672" y="0" type="line"/>
      <point x="1892" y="1040" type="line"/>
      <point x="1512" y="1040" type="line"/>
      <point x="1358" y="312" type="line"/>
      <point x="1102" y="312" type="line"/>
      <point x="1256" y="1040" type="line"/>
      <point x="876" y="1040" type="line"/>
      <point x="722" y="312" type="line"/>
      <point x="466" y="312" type="line"/>
      <point x="620" y="1040" type="line"/>
      <point x="240" y="1040" type="line"/>
    </contour>
  </outline>
</glyph>
<glyph name="ereversed-cy" format="2">
  <advance width="1125"/>
  <unicode hex="044D"/>
  <anchor x="386" y="0" name="bottom"/>
  <anchor x="606" y="1040" name="top"/>
  <outline>
    <contour>
      <point x="440" y="-30" type="curve" smooth="yes"/>
      <point x="822" y="-30"/>
      <point x="1068" y="224"/>
      <point x="1068" y="556" type="curve" smooth="yes"/>
      <point x="1068" y="884"/>
      <point x="852" y="1070"/>
      <point x="518" y="1070" type="curve" smooth="yes"/>
      <point x="370" y="1070"/>
      <point x="230" y="1030"/>
      <point x="122" y="966" type="curve"/>
      <point x="202" y="702" type="line"/>
      <point x="270" y="748"/>
      <point x="360" y="778"/>
      <point x="458" y="778" type="curve" smooth="yes"/>
      <point x="622" y="778"/>
      <point x="712" y="714"/>
      <point x="712" y="546" type="curve" smooth="yes"/>
      <point x="712" y="390"/>
      <point x="648" y="262"/>
      <point x="446" y="262" type="curve" smooth="yes"/>
      <point x="334" y="262"/>
      <point x="222" y="304"/>
      <point x="156" y="384" type="curve"/>
      <point x="-36" y="142" type="line"/>
      <point x="74" y="32"/>
      <point x="274" y="-30"/>
    </contour>
    <contour>
      <point x="274" y="396" type="line"/>
      <point x="802" y="396" type="line"/>
      <point x="858" y="664" type="line"/>
      <point x="330" y="664" type="line"/>
    </contour>
  </outline>
</glyph>
<glyph name="iu-cy" format="2">
  <advance width="1908"/>
  <unicode hex="044E"/>
  <guideline x="526" y="405" angle="164.064"/>
  <anchor x="1098" y="1040" name="top"/>
  <outline>
    <contour>
      <point x="20" y="0" type="line"/>
      <point x="420" y="0" type="line"/>
      <point x="498" y="370" type="line"/>
      <point x="818" y="370" type="line"/>
      <point x="884" y="682" type="line"/>
      <point x="564" y="682" type="line"/>
      <point x="640" y="1040" type="line"/>
      <point x="240" y="1040" type="line"/>
    </contour>
    <contour>
      <point x="1210" y="-30" type="curve" smooth="yes"/>
      <point x="1556" y="-30"/>
      <point x="1858" y="244"/>
      <point x="1858" y="578" type="curve" smooth="yes"/>
      <point x="1858" y="848"/>
      <point x="1648" y="1070"/>
      <point x="1314" y="1070" type="curve" smooth="yes"/>
      <point x="968" y="1070"/>
      <point x="666" y="796"/>
      <point x="666" y="464" type="curve" smooth="yes"/>
      <point x="666" y="192"/>
      <point x="874" y="-30"/>
    </contour>
    <contour>
      <point x="1240" y="310" type="curve" smooth="yes"/>
      <point x="1134" y="310"/>
      <point x="1058" y="380"/>
      <point x="1058" y="490" type="curve" smooth="yes"/>
      <point x="1058" y="616"/>
      <point x="1148" y="730"/>
      <point x="1284" y="730" type="curve" smooth="yes"/>
      <point x="1392" y="730"/>
      <point x="1466" y="662"/>
      <point x="1466" y="552" type="curve" smooth="yes"/>
      <point x="1466" y="426"/>
      <point x="1378" y="310"/>
    </contour>
  </outline>
</glyph>
<glyph name="ia-cy" format="2">
  <advance width="1182"/>
  <unicode hex="044F"/>
  <anchor x="714" y="1040" name="top"/>
  <outline>
    <contour>
      <point x="-68" y="0" type="line"/>
      <point x="352" y="0" type="line"/>
      <point x="588" y="320" type="line"/>
      <point x="662" y="320" type="line"/>
      <point x="714" y="578" type="line"/>
      <point x="626" y="578" type="line" smooth="yes"/>
      <point x="548" y="578"/>
      <point x="512" y="610"/>
      <point x="512" y="668" type="curve" smooth="yes"/>
      <point x="512" y="728"/>
      <point x="552" y="768"/>
      <point x="640" y="768" type="curve" smooth="yes"/>
      <point x="726" y="768" type="line"/>
      <point x="562" y="0" type="line"/>
      <point x="942" y="0" type="line"/>
      <point x="1162" y="1040" type="line"/>
      <point x="642" y="1040" type="line" smooth="yes"/>
      <point x="286" y="1040"/>
      <point x="110" y="898"/>
      <point x="106" y="652" type="curve" smooth="yes"/>
      <point x="114" y="442"/>
      <point x="292" y="352"/>
      <point x="470" y="326" type="curve"/>
      <point x="390" y="566" type="line"/>
    </contour>
  </outline>
</glyph>
<glyph name="e-cy" format="2">
  <advance width="1160"/>
  <unicode hex="0454"/>
  <outline>
    <contour>
      <point x="617" y="-30" type="curve" smooth="yes"/>
      <point x="757" y="-30"/>
      <point x="911" y="10"/>
      <point x="1029" y="80" type="curve"/>
      <point x="939" y="338" type="line"/>
      <point x="851" y="284"/>
      <point x="763" y="262"/>
      <point x="675" y="262" type="curve" smooth="yes"/>
      <point x="505" y="262"/>
      <point x="411" y="340"/>
      <point x="411" y="488" type="curve" smooth="yes"/>
      <point x="411" y="650"/>
      <point x="503" y="778"/>
      <point x="685" y="778" type="curve" smooth="yes"/>
      <point x="781" y="778"/>
      <point x="883" y="744"/>
      <point x="955" y="658" type="curve"/>
      <point x="1157" y="908" type="line"/>
      <point x="1039" y="1014"/>
      <point x="875" y="1070"/>
      <point x="707" y="1070" type="curve" smooth="yes"/>
      <point x="359" y="1070"/>
      <point x="55" y="820"/>
      <point x="55" y="488" type="curve" smooth="yes"/>
      <point x="55" y="180"/>
      <point x="299" y="-30"/>
    </contour>
    <contour>
      <point x="267" y="396" type="line"/>
      <point x="807" y="396" type="line"/>
      <point x="863" y="664" type="line"/>
      <point x="323" y="664" type="line"/>
    </contour>
  </outline>
</glyph>
<glyph name="lje-cy" format="2">
  <advance width="1899"/>
  <unicode hex="0459"/>
  <outline>
    <contour>
      <point x="46" y="-30" type="line"/>
      <point x="436" y="32"/>
      <point x="584" y="336"/>
      <point x="656" y="698" type="curve" smooth="yes"/>
      <point x="662" y="728" type="line"/>
      <point x="854" y="728" type="line"/>
      <point x="1320" y="1040" type="line"/>
      <point x="368" y="1040" type="line"/>
      <point x="296" y="698" type="line" smooth="yes"/>
      <point x="256" y="502"/>
      <point x="208" y="390"/>
      <point x="-2" y="332" type="curve"/>
    </contour>
    <contour>
      <point x="700" y="0" type="line"/>
      <point x="1298" y="0" type="line" smooth="yes"/>
      <point x="1598" y="0"/>
      <point x="1806" y="166"/>
      <point x="1806" y="404" type="curve" smooth="yes"/>
      <point x="1806" y="632"/>
      <point x="1646" y="758"/>
      <point x="1356" y="758" type="curve" smooth="yes"/>
      <point x="1224" y="758" type="line"/>
      <point x="1168" y="490" type="line"/>
      <point x="1284" y="490" type="line" smooth="yes"/>
      <point x="1354" y="490"/>
      <point x="1392" y="450"/>
      <point x="1392" y="388" type="curve" smooth="yes"/>
      <point x="1392" y="316"/>
      <point x="1340" y="272"/>
      <point x="1272" y="272" type="curve" smooth="yes"/>
      <point x="1156" y="272" type="line"/>
      <point x="1320" y="1040" type="line"/>
      <point x="920" y="1040" type="line"/>
    </contour>
  </outline>
</glyph>
<glyph name="nje-cy" format="2">
  <advance width="1895"/>
  <unicode hex="045A"/>
  <outline>
    <contour>
      <point x="20" y="0" type="line"/>
      <point x="420" y="0" type="line"/>
      <point x="640" y="1040" type="line"/>
      <point x="240" y="1040" type="line"/>
    </contour>
    <contour>
      <point x="720" y="0" type="line"/>
      <point x="1318" y="0" type="line" smooth="yes"/>
      <point x="1608" y="0"/>
      <point x="1806" y="152"/>
      <point x="1806" y="366" type="curve" smooth="yes"/>
      <point x="1806" y="582"/>
      <point x="1646" y="704"/>
      <point x="1358" y="704" type="curve" smooth="yes"/>
      <point x="502" y="704" type="line"/>
      <point x="452" y="420" type="line"/>
      <point x="942" y="420" type="line"/>
      <point x="1108" y="440" type="line"/>
      <point x="1292" y="440" type="line" smooth="yes"/>
      <point x="1356" y="440"/>
      <point x="1392" y="408"/>
      <point x="1392" y="359" type="curve" smooth="yes"/>
      <point x="1392" y="304"/>
      <point x="1346" y="268"/>
      <point x="1286" y="268" type="curve" smooth="yes"/>
      <point x="1174" y="268" type="line"/>
      <point x="1340" y="1040" type="line"/>
      <point x="940" y="1040" type="line"/>
    </contour>
  </outline>
</glyph>
<glyph name="Yat-cy" format="2">
  <advance width="1552"/>
  <unicode hex="0462"/>
  <outline>
    <contour>
      <point x="245" y="0" type="line"/>
      <point x="879" y="0" type="line" smooth="yes"/>
      <point x="1295" y="0"/>
      <point x="1497" y="240"/>
      <point x="1495" y="494" type="curve" smooth="yes"/>
      <point x="1491" y="701"/>
      <point x="1327" y="888"/>
      <point x="965" y="888" type="curve" smooth="yes"/>
      <point x="805" y="888" type="line"/>
      <point x="737" y="566" type="line"/>
      <point x="897" y="566" type="line" smooth="yes"/>
      <point x="1011" y="566"/>
      <point x="1059" y="514"/>
      <point x="1061" y="442" type="curve" smooth="yes"/>
      <point x="1063" y="370"/>
      <point x="1011" y="294"/>
      <point x="877" y="294" type="curve" smooth="yes"/>
      <point x="713" y="294" type="line"/>
      <point x="951" y="1440" type="line"/>
      <point x="551" y="1440" type="line"/>
    </contour>
    <contour>
      <point x="157" y="996" type="line"/>
      <point x="1163" y="996" type="line"/>
      <point x="1227" y="1304" type="line"/>
      <point x="221" y="1304" type="line"/>
    </contour>
  </outline>
</glyph>
<glyph name="izhitsa-cy" format="2">
  <advance width="1256"/>
  <unicode hex="0475"/>
  <outline>
    <contour>
      <point x="256" y="0" type="line"/>
      <point x="706" y="0" type="line"/>
      <point x="1008" y="458" type="line" smooth="yes"/>
      <point x="1114" y="620"/>
      <point x="1192" y="684"/>
      <point x="1328" y="678" type="curve"/>
      <point x="1292" y="1060" type="line"/>
      <point x="1006" y="1072"/>
      <point x="888" y="968"/>
      <point x="688" y="638" type="curve" smooth="yes"/>
      <point x="584" y="466" type="line"/>
      <point x="542" y="1040" type="line"/>
      <point x="120" y="1040" type="line"/>
    </contour>
  </outline>
</glyph>
<glyph name="Gheupturn-cy" format="2">
  <advance width="1088"/>
  <unicode hex="0490"/>
  <anchor x="468" y="644" name="bar"/>
  <anchor x="452" y="0" name="descender"/>
  <anchor x="794" y="1400" name="top"/>
  <outline>
    <contour>
      <point x="782" y="1032" type="line"/>
      <point x="1166" y="1032" type="line"/>
      <point x="1314" y="1750" type="line"/>
      <point x="930" y="1750" type="line"/>
    </contour>
    <component base="Ge-cy"/>
  </outline>
</glyph>
<glyph name="gheupturn-cy" format="2">
  <advance width="904"/>
  <unicode hex="0491"/>
  <anchor x="340" y="462" name="bar"/>
  <anchor x="422" y="0" name="descender"/>
  <anchor x="614" y="1040" name="top"/>
  <outline>
    <contour>
      <point x="540" y="728" type="line"/>
      <point x="906" y="728" type="line"/>
      <point x="1036" y="1340" type="line"/>
      <point x="672" y="1340" type="line"/>
    </contour>
    <component base="ge-cy"/>
  </outline>
</glyph>
<glyph name="Ghemiddlehook-cy" format="2">
  <advance width="1465"/>
  <unicode hex="0494"/>
  <outline>
    <contour>
      <point x="48" y="0" type="line"/>
      <point x="454" y="0" type="line"/>
      <point x="670" y="1040" type="line"/>
      <point x="1228" y="1040" type="line"/>
      <point x="1304" y="1400" type="line"/>
      <point x="344" y="1400" type="line"/>
    </contour>
    <contour>
      <point x="804" y="-336" type="line"/>
      <point x="1138" y="-208"/>
      <point x="1376" y="100"/>
      <point x="1378" y="410" type="curve" smooth="yes"/>
      <point x="1380" y="714"/>
      <point x="1166" y="902"/>
      <point x="818" y="902" type="curve" smooth="yes"/>
      <point x="736" y="902"/>
      <point x="652" y="888"/>
      <point x="566" y="862" type="curve"/>
      <point x="506" y="546" type="line"/>
      <point x="576" y="570"/>
      <point x="634" y="582"/>
      <point x="688" y="582" type="curve" smooth="yes"/>
      <point x="852" y="582"/>
      <point x="956" y="486"/>
      <point x="954" y="340" type="curve" smooth="yes"/>
      <point x="952" y="194"/>
      <point x="838" y="54"/>
      <point x="662" y="-20" type="curve"/>
    </contour>
  </outline>
</glyph>
<glyph name="Enghe-cy" format="2">
  <advance width="1960"/>
  <unicode hex="04A4"/>
  <anchor x="1316" y="0" name="descender"/>
  <anchor x="982" y="1400" name="top"/>
  <anchor x="228" y="1400" name="topleft"/>
  <outline>
    <contour>
      <point x="1542" y="1032" type="line"/>
      <point x="2038" y="1032" type="line"/>
      <point x="2116" y="1400" type="line"/>
      <point x="1216" y="1400" type="line"/>
    </contour>
    <component base="En-cy"/>
  </outline>
</glyph>
<glyph name="enghe-cy" format="2">
  <advance width="1622"/>
  <unicode hex="04A5"/>
  <outline>
    <contour>
      <point x="20" y="0" type="line"/>
      <point x="420" y="0" type="line"/>
      <point x="498" y="370" type="line"/>
      <point x="818" y="370" type="line"/>
      <point x="740" y="0" type="line"/>
      <point x="1140" y="0" type="line"/>
      <point x="1294" y="728" type="line"/>
      <point x="1626" y="728" type="line"/>
      <point x="1692" y="1040" type="line"/>
      <point x="960" y="1040" type="line"/>
      <point x="884" y="682" type="line"/>
      <point x="564" y="682" type="line"/>
      <point x="640" y="1040" type="line"/>
      <point x="240" y="1040" type="line"/>
    </contour>
  </outline>
</glyph>
<glyph name="chekhakassian-cy" format="2">
  <advance width="1256"/>
  <unicode hex="04CC"/>
  <anchor x="616" y="0" name="_descender"/>
  <anchor x="584" y="486" name="center"/>
  <anchor x="1016" y="0" name="descender"/>
  <anchor x="616" y="0" name="descender_alt"/>
  <anchor x="702" y="1040" name="top"/>
  <outline>
    <contour>
      <point x="268" y="-300" type="line"/>
      <point x="632" y="-300" type="line"/>
      <point x="696" y="0" type="line"/>
      <point x="776" y="0" type="line"/>
      <point x="826" y="232" type="line"/>
      <point x="382" y="232" type="line"/>
    </contour>
    <component base="che-cy"/>
  </outline>
</glyph>
<glyph name="Obarred-cy" format="2">
  <advance width="1684"/>
  <unicode hex="04E8"/>
  <anchor x="768" y="0" name="bottom"/>
  <anchor x="1396" y="1400" name="horn"/>
  <anchor x="1034" y="0" name="ogonek"/>
  <anchor x="992" y="1400" name="top"/>
  <anchor x="286" y="1400" name="topleft"/>
  <outline>
    <contour>
      <point x="370" y="562" type="line"/>
      <point x="1332" y="562" type="line"/>
      <point x="1396" y="864" type="line"/>
      <point x="434" y="864" type="line"/>
    </contour>
    <component base="O"/>
  </outline>
</glyph>
<glyph name="endash" format="2">
  <advance width="1082"/>
  <unicode hex="2013"/>
  <outline>
    <contour>
      <point x="28" y="412" type="line"/>
      <point x="1008" y="412" type="line"/>
      <point x="1076" y="728" type="line"/>
      <point x="96" y="728" type="line"/>
    </contour>
  </outline>
</glyph>
<glyph name="dagger" format="2">
  <advance width="1349"/>
  <unicode hex="2020"/>
  <outline>
    <contour>
      <point x="300" y="-318" type="line"/>
      <point x="694" y="-318" type="line"/>
      <point x="888" y="602" type="line"/>
      <point x="1300" y="602" type="line"/>
      <point x="1370" y="926" type="line"/>
      <point x="958" y="926" type="line"/>
      <point x="1058" y="1400" type="line"/>
      <point x="664" y="1400" type="line"/>
      <point x="564" y="926" type="line"/>
      <point x="152" y="926" type="line"/>
      <point x="82" y="602" type="line"/>
      <point x="494" y="602" type="line"/>
    </contour>
  </outline>
</glyph>
<glyph name="perthousand" format="2">
  <advance width="3009"/>
  <unicode hex="2030"/>
  <outline>
    <contour>
      <point x="658" y="-40" type="line"/>
      <point x="1712" y="1304" type="line"/>
      <point x="1538" y="1440" type="line"/>
      <point x="484" y="96" type="line"/>
    </contour>
    <contour>
      <point x="518" y="606" type="curve" smooth="yes"/>
      <point x="768" y="606"/>
      <point x="978" y="814"/>
      <point x="978" y="1062" type="curve" smooth="yes"/>
      <point x="978" y="1264"/>
      <point x="822" y="1420"/>
      <point x="600" y="1420" type="curve" smooth="yes"/>
      <point x="352" y="1420"/>
      <point x="136" y="1216"/>
      <point x="136" y="970" type="curve" smooth="yes"/>
      <point x="136" y="766"/>
      <point x="294" y="606"/>
    </contour>
    <contour>
      <point x="544" y="852" type="curve" smooth="yes"/>
      <point x="454" y="852"/>
      <point x="398" y="908"/>
      <point x="398" y="994" type="curve" smooth="yes"/>
      <point x="398" y="1094"/>
      <point x="474" y="1174"/>
      <point x="572" y="1174" type="curve" smooth="yes"/>
      <point x="660" y="1174"/>
      <point x="718" y="1116"/>
      <point x="718" y="1034" type="curve" smooth="yes"/>
      <point x="718" y="930"/>
      <point x="636" y="852"/>
    </contour>
    <contour>
      <point x="1598" y="-20" type="curve" smooth="yes"/>
      <point x="1846" y="-20"/>
      <point x="2060" y="186"/>
      <point x="2060" y="432" type="curve" smooth="yes"/>
      <point x="2060" y="638"/>
      <point x="1904" y="794"/>
      <point x="1680" y="794" type="curve" smooth="yes"/>
      <point x="1430" y="794"/>
      <point x="1218" y="590"/>
      <point x="1218" y="344" type="curve" smooth="yes"/>
      <point x="1218" y="140"/>
      <point x="1376" y="-20"/>
    </contour>
    <contour>
      <point x="1626" y="226" type="curve" smooth="yes"/>
      <point x="1534" y="226"/>
      <point x="1480" y="284"/>
      <point x="1480" y="366" type="curve" smooth="yes"/>
      <point x="1480" y="468"/>
      <point x="1554" y="548"/>
      <point x="1654" y="548" type="curve" smooth="yes"/>
      <point x="1742" y="548"/>
      <point x="1800" y="492"/>
      <point x="1800" y="408" type="curve" smooth="yes"/>
      <point x="1800" y="310"/>
      <point x="1722" y="226"/>
    </contour>
    <contour>
      <point x="2488" y="-20" type="curve" smooth="yes"/>
      <point x="2736" y="-20"/>
      <point x="2950" y="186"/>
      <point x="2950" y="432" type="curve" smooth="yes"/>
      <point x="2950" y="638"/>
      <point x="2794" y="794"/>
      <point x="2570" y="794" type="curve" smooth="yes"/>
      <point x="2320" y="794"/>
      <point x="2108" y="590"/>
      <point x="2108" y="344" type="curve" smooth="yes"/>
      <point x="2108" y="140"/>
      <point x="2266" y="-20"/>
    </contour>
    <contour>
      <point x="2516" y="226" type="curve" smooth="yes"/>
      <point x="2424" y="226"/>
      <point x="2370" y="284"/>
      <point x="2370" y="366" type="curve" smooth="yes"/>
      <point x="2370" y="468"/>
      <point x="2444" y="548"/>
      <point x="2544" y="548" type="curve" smooth="yes"/>
      <point x="2632" y="548"/>
      <point x="2690" y="492"/>
      <point x="2690" y="408" type="curve" smooth="yes"/>
      <point x="2690" y="310"/>
      <point x="2612" y="226"/>
    </contour>
  </outline>
</glyph>
<glyph name="minute" format="2">
  <advance width="514"/>
  <unicode hex="2032"/>
  <outline>
    <contour>
      <point x="126" y="902" type="line"/>
      <point x="416" y="902" type="line"/>
      <point x="692" y="1440" type="line"/>
      <point x="322" y="1440" type="line"/>
    </contour>
  </outline>
</glyph>
<glyph name="guilsinglleft" format="2">
  <advance width="710"/>
  <unicode hex="2039"/>
  <guideline x="454" y="1060" angle="322.2473"/>
  <guideline x="276" y="-26" angle="22.9128"/>
  <outline>
    <contour>
      <point x="240" y="59" type="line"/>
      <point x="541" y="186" type="line"/>
      <point x="408" y="508" type="line"/>
      <point x="642" y="815" type="line"/>
      <point x="406" y="998" type="line"/>
      <point x="42" y="528" type="line"/>
    </contour>
  </outline>
</glyph>
<glyph name="guilsinglright" format="2">
  <advance width="709"/>
  <unicode hex="203A"/>
  <outline>
    <contour>
      <point x="-9" y="138" type="line"/>
      <point x="369" y="138" type="line"/>
      <point x="671" y="528" type="line"/>
      <point x="507" y="916" type="line"/>
      <point x="153" y="916" type="line"/>
      <point x="305" y="548" type="line"/>
    </contour>
  </outline>
</glyph>
<glyph name="fraction" format="2">
  <advance width="403"/>
  <unicode hex="2044"/>
  <guideline x="-95" y="-24" angle="322.7187"/>
  <guideline x="335" y="723" angle="322.7187"/>
  <outline>
    <contour>
      <point x="-200" y="-40" type="line"/>
      <point x="854" y="1304" type="line"/>
      <point x="680" y="1440" type="line"/>
      <point x="-374" y="96" type="line"/>
    </contour>
  </outline>
</glyph>
<glyph name="commercialMinusSign" format="2">
  <advance width="1297"/>
  <unicode hex="2052"/>
  <outline>
    <contour>
      <point x="260" y="-48" type="line"/>
      <point x="1302" y="1320" type="line"/>
      <point x="1120" y="1446" type="line"/>
      <point x="80" y="82" type="line"/>
    </contour>
    <contour>
      <point x="886" y="-20" type="curve" smooth="yes"/>
      <point x="1018" y="-20"/>
      <point x="1142" y="72"/>
      <point x="1142" y="228" type="curve" smooth="yes"/>
      <point x="1142" y="352"/>
      <point x="1048" y="426"/>
      <point x="926" y="426" type="curve" smooth="yes"/>
      <point x="794" y="426"/>
      <point x="668" y="334"/>
      <point x="668" y="176" type="curve" smooth="yes"/>
      <point x="668" y="56"/>
      <point x="764" y="-20"/>
    </contour>
    <contour>
      <point x="454" y="974" type="curve" smooth="yes"/>
      <point x="586" y="974"/>
      <point x="710" y="1066"/>
      <point x="710" y="1222" type="curve" smooth="yes"/>
      <point x="710" y="1346"/>
      <point x="616" y="1420"/>
      <point x="494" y="1420" type="curve" smooth="yes"/>
      <point x="362" y="1420"/>
      <point x="236" y="1328"/>
      <point x="236" y="1170" type="curve" smooth="yes"/>
      <point x="236" y="1050"/>
      <point x="332" y="974"/>
    </contour>
  </outline>
</glyph>
<glyph name="peseta" format="2">
  <advance width="1297"/>
  <unicode hex="20A7"/>
  <outline>
    <contour>
      <point x="-6" y="0" type="line"/>
      <point x="358" y="0" type="line"/>
      <point x="456" y="464" type="line"/>
      <point x="640" y="464" type="line" smooth="yes"/>
      <point x="998" y="464"/>
      <point x="1234" y="656"/>
      <point x="1234" y="996" type="curve" smooth="yes"/>
      <point x="1234" y="1262"/>
      <point x="1046" y="1400"/>
      <point x="808" y="1400" type="curve" smooth="yes"/>
      <point x="290" y="1400" type="line"/>
    </contour>
    <contour>
      <point x="492" y="730" type="line"/>
      <point x="576" y="1124" type="line"/>
      <point x="728" y="1124" type="line" smooth="yes"/>
      <point x="826" y="1124"/>
      <point x="906" y="1086"/>
      <point x="906" y="962" type="curve" smooth="yes"/>
      <point x="906" y="824"/>
      <point x="834" y="730"/>
      <point x="682" y="730" type="curve" smooth="yes"/>
    </contour>
    <component base="_part.currencyBarHorizontalSingle" yxScale="0.00235" xOffset="48" yOffset="242"/>
  </outline>
</glyph>
<glyph name="euro" format="2">
  <advance width="1297"/>
  <unicode hex="20AC"/>
  <outline>
    <contour>
      <point x="778" y="-30" type="curve" smooth="yes"/>
      <point x="938" y="-30"/>
      <point x="1082" y="6"/>
      <point x="1200" y="72" type="curve"/>
      <point x="1124" y="372" type="line"/>
      <point x="1008" y="308"/>
      <point x="918" y="284"/>
      <point x="818" y="284" type="curve" smooth="yes"/>
      <point x="680" y="284"/>
      <point x="594" y="322"/>
      <point x="550" y="420" type="curve"/>
      <point x="906" y="420" type="line"/>
      <point x="954" y="646" type="line"/>
      <point x="536" y="646" type="line"/>
      <point x="536" y="692"/>
      <point x="546" y="730"/>
      <point x="554" y="758" type="curve"/>
      <point x="978" y="758" type="line"/>
      <point x="1026" y="984" type="line"/>
      <point x="634" y="984" type="line"/>
      <point x="704" y="1080"/>
      <point x="790" y="1116"/>
      <point x="890" y="1116" type="curve" smooth="yes"/>
      <point x="1012" y="1116"/>
      <point x="1106" y="1076"/>
      <point x="1198" y="1002" type="curve"/>
      <point x="1384" y="1270" type="line"/>
      <point x="1296" y="1368"/>
      <point x="1106" y="1430"/>
      <point x="928" y="1430" type="curve" smooth="yes"/>
      <point x="644" y="1430"/>
      <point x="402" y="1282"/>
      <point x="256" y="984" type="curve"/>
      <point x="112" y="984" type="line"/>
      <point x="64" y="758" type="line"/>
      <point x="188" y="758" type="line"/>
      <point x="182" y="730"/>
      <point x="176" y="692"/>
      <point x="174" y="646" type="curve"/>
      <point x="40" y="646" type="line"/>
      <point x="-8" y="420" type="line"/>
      <point x="174" y="420" type="line"/>
      <point x="224" y="140"/>
      <point x="448" y="-30"/>
    </contour>
  </outline>
</glyph>
<glyph name="peso" format="2">
  <advance width="1297"/>
  <unicode hex="20B1"/>
  <outline>
    <contour>
      <point x="66" y="0" type="line"/>
      <point x="410" y="0" type="line"/>
      <point x="482" y="344" type="line"/>
      <point x="626" y="344" type="line" smooth="yes"/>
      <point x="1014" y="344"/>
      <point x="1256" y="576"/>
      <point x="1256" y="952" type="curve" smooth="yes"/>
      <point x="1256" y="1246"/>
      <point x="1058" y="1400"/>
      <point x="820" y="1400" type="curve" smooth="yes"/>
      <point x="362" y="1400" type="line"/>
    </contour>
    <contour>
      <point x="534" y="590" type="line"/>
      <point x="652" y="1144" type="line"/>
      <point x="744" y="1144" type="line" smooth="yes"/>
      <point x="836" y="1144"/>
      <point x="910" y="1094"/>
      <point x="910" y="942" type="curve" smooth="yes"/>
      <point x="910" y="766"/>
      <point x="844" y="590"/>
      <point x="664" y="590" type="curve" smooth="yes"/>
    </contour>
    <contour>
      <point x="88" y="904" type="line"/>
      <point x="1416" y="904" type="line"/>
      <point x="1454" y="1090" type="line"/>
      <point x="126" y="1090" type="line"/>
    </contour>
    <contour>
      <point x="32" y="646" type="line"/>
      <point x="1360" y="646" type="line"/>
      <point x="1400" y="832" type="line"/>
      <point x="72" y="832" type="line"/>
    </contour>
  </outline>
</glyph>
<glyph name="rupeeIndian" format="2">
  <advance width="1297"/>
  <unicode hex="20B9"/>
  <outline>
    <contour>
      <point x="534" y="0" type="line"/>
      <point x="916" y="0" type="line"/>
      <point x="682" y="564" type="line"/>
      <point x="914" y="622"/>
      <point x="1082" y="764"/>
      <point x="1082" y="1000" type="curve" smooth="yes"/>
      <point x="1082" y="1220"/>
      <point x="900" y="1360"/>
      <point x="614" y="1360" type="curve" smooth="yes"/>
      <point x="456" y="1360" type="line"/>
      <point x="416" y="1174" type="line"/>
      <point x="520" y="1174" type="line" smooth="yes"/>
      <point x="642" y="1174"/>
      <point x="752" y="1142"/>
      <point x="750" y="996" type="curve" smooth="yes"/>
      <point x="750" y="828"/>
      <point x="652" y="742"/>
      <point x="468" y="742" type="curve" smooth="yes"/>
      <point x="324" y="742" type="line"/>
      <point x="296" y="610" type="line"/>
    </contour>
    <contour>
      <point x="156" y="836" type="line"/>
      <point x="1276" y="836" type="line"/>
      <point x="1324" y="1062" type="line"/>
      <point x="204" y="1062" type="line"/>
    </contour>
    <contour>
      <point x="228" y="1174" type="line"/>
      <point x="1348" y="1174" type="line"/>
      <point x="1396" y="1400" type="line"/>
      <point x="276" y="1400" type="line"/>
    </contour>
  </outline>
</glyph>
<glyph name="liraTurkish" format="2">
  <advance width="1297"/>
  <unicode hex="20BA"/>
  <outline>
    <contour>
      <point x="572" y="-30" type="curve" smooth="yes"/>
      <point x="994" y="-30"/>
      <point x="1268" y="226"/>
      <point x="1282" y="634" type="curve"/>
      <point x="928" y="594" type="line"/>
      <point x="924" y="424"/>
      <point x="840" y="308"/>
      <point x="660" y="308" type="curve" smooth="yes"/>
      <point x="596" y="308"/>
      <point x="510" y="320"/>
      <point x="486" y="344" type="curve"/>
      <point x="538" y="138" type="line"/>
      <point x="806" y="1400" type="line"/>
      <point x="402" y="1400" type="line"/>
      <point x="118" y="62" type="line"/>
      <point x="256" y="-2"/>
      <point x="398" y="-30"/>
    </contour>
    <contour>
      <point x="-48" y="308" type="line"/>
      <point x="402" y="518" type="line"/>
      <point x="396" y="478" type="line"/>
      <point x="1104" y="806" type="line"/>
      <point x="1160" y="1064" type="line"/>
      <point x="430" y="726" type="line"/>
      <point x="436" y="766" type="line"/>
      <point x="8" y="566" type="line"/>
    </contour>
    <contour>
      <point x="26" y="656" type="line"/>
      <point x="476" y="866" type="line"/>
      <point x="470" y="826" type="line"/>
      <point x="1178" y="1154" type="line"/>
      <point x="1234" y="1412" type="line"/>
      <point x="504" y="1074" type="line"/>
      <point x="510" y="1114" type="line"/>
      <point x="82" y="914" type="line"/>
    </contour>
  </outline>
</glyph>
<glyph name="approxequal" format="2">
  <advance width="1297"/>
  <unicode hex="2248"/>
  <outline>
    <contour>
      <point x="970" y="706" type="curve" smooth="yes"/>
      <point x="1096" y="706"/>
      <point x="1224" y="768"/>
      <point x="1334" y="888" type="curve"/>
      <point x="1238" y="1120" type="line"/>
      <point x="1156" y="1024"/>
      <point x="1072" y="978"/>
      <point x="990" y="978" type="curve" smooth="yes"/>
      <point x="864" y="978"/>
      <point x="678" y="1126"/>
      <point x="502" y="1126" type="curve" smooth="yes"/>
      <point x="380" y="1126"/>
      <point x="258" y="1062"/>
      <point x="150" y="944" type="curve"/>
      <point x="246" y="712" type="line"/>
      <point x="324" y="806"/>
      <point x="410" y="854"/>
      <point x="494" y="854" type="curve" smooth="yes"/>
      <point x="630" y="854"/>
      <point x="762" y="706"/>
    </contour>
    <contour>
      <point x="866" y="214" type="curve" smooth="yes"/>
      <point x="992" y="214"/>
      <point x="1120" y="276"/>
      <point x="1230" y="396" type="curve"/>
      <point x="1134" y="628" type="line"/>
      <point x="1052" y="532"/>
      <point x="968" y="486"/>
      <point x="886" y="486" type="curve" smooth="yes"/>
      <point x="760" y="486"/>
      <point x="574" y="634"/>
      <point x="398" y="634" type="curve" smooth="yes"/>
      <point x="276" y="634"/>
      <point x="154" y="570"/>
      <point x="46" y="452" type="curve"/>
      <point x="142" y="220" type="line"/>
      <point x="220" y="314"/>
      <point x="306" y="362"/>
      <point x="390" y="362" type="curve" smooth="yes"/>
      <point x="526" y="362"/>
      <point x="658" y="214"/>
    </contour>
  </outline>
</glyph>
<glyph name="notequal" format="2">
  <advance width="1297"/>
  <unicode hex="2260"/>
  <guideline x="689" y="583" angle="325.4466"/>
  <guideline x="-11" y="81" angle="325.4466"/>
  <outline>
    <contour>
      <point x="330" y="-28" type="line"/>
      <point x="1202" y="1236" type="line"/>
      <point x="1024" y="1360" type="line"/>
      <point x="154" y="94" type="line"/>
    </contour>
    <contour>
      <point x="124" y="782" type="line"/>
      <point x="1284" y="782" type="line"/>
      <point x="1340" y="1050" type="line"/>
      <point x="180" y="1050" type="line"/>
    </contour>
    <contour>
      <point x="20" y="290" type="line"/>
      <point x="1180" y="290" type="line"/>
      <point x="1236" y="558" type="line"/>
      <point x="76" y="558" type="line"/>
    </contour>
  </outline>
</glyph>
<glyph name="leftanglebracket-math" format="2">
  <advance width="1297"/>
  <unicode hex="27E8"/>
  <guideline x="629" y="329" angle="90"/>
  <guideline x="581" y="690" angle="48.8943"/>
  <outline>
    <contour>
      <point x="926" y="-450" type="line"/>
      <point x="1006" y="-70" type="line"/>
      <point x="534" y="646" type="line"/>
      <point x="1310" y="1360" type="line"/>
      <point x="1398" y="1778" type="line"/>
      <point x="190" y="664" type="line"/>
    </contour>
  </outline>
</glyph>
<glyph name="rightanglebracket-math" format="2">
  <advance width="1298"/>
  <unicode hex="27E9"/>
  <outline>
    <contour>
      <point x="-40" y="-450" type="line"/>
      <point x="1168" y="664" type="line"/>
      <point x="432" y="1778" type="line"/>
      <point x="352" y="1398" type="line"/>
      <point x="824" y="682" type="line"/>
      <point x="48" y="-32" type="line"/>
    </contour>
  </outline>
</glyph>
<glyph name="_part.Tse-cy" format="2">
  <advance width="1592"/>
  <guideline x="343" y="0" angle="0"/>
  <anchor x="686" y="0" name="bottom"/>
  <anchor x="1324" y="0" name="descender"/>
  <outline>
    <contour>
      <point x="48" y="0" type="line"/>
      <point x="1324" y="0" type="line"/>
      <point x="1620" y="1400" type="line"/>
      <point x="1216" y="1400" type="line"/>
      <point x="998" y="368" type="line"/>
      <point x="530" y="368" type="line"/>
      <point x="748" y="1400" type="line"/>
      <point x="344" y="1400" type="line"/>
    </contour>
  </outline>
</glyph>
<glyph name="_part.Zhe-cy" format="2">
  <advance width="2328"/>
  <anchor x="2068" y="0" name="descender"/>
  <anchor x="1350" y="1400" name="top"/>
  <outline>
    <contour>
      <point x="1726" y="0" type="line"/>
      <point x="2228" y="0" type="line"/>
      <point x="1792" y="690" type="line"/>
      <point x="2466" y="1400" type="line"/>
      <point x="1936" y="1400" type="line"/>
      <point x="1300" y="714" type="line"/>
    </contour>
    <contour>
      <point x="-120" y="0" type="line"/>
      <point x="400" y="0" type="line"/>
      <point x="1102" y="704" type="line"/>
      <point x="746" y="1400" type="line"/>
      <point x="242" y="1400" type="line"/>
      <point x="610" y="708" type="line"/>
    </contour>
    <contour>
      <point x="852" y="0" type="line"/>
      <point x="1256" y="0" type="line"/>
      <point x="1370" y="538" type="line"/>
      <point x="1638" y="538" type="line"/>
      <point x="1716" y="906" type="line"/>
      <point x="1448" y="906" type="line"/>
      <point x="1552" y="1400" type="line"/>
      <point x="1148" y="1400" type="line"/>
      <point x="1044" y="906" type="line"/>
      <point x="776" y="906" type="line"/>
      <point x="698" y="538" type="line"/>
      <point x="966" y="538" type="line"/>
    </contour>
  </outline>
</glyph>
<glyph name="_part.currencyBarHorizontalSingle" format="2">
  <advance width="1297"/>
  <anchor x="836" y="1400" name="_top"/>
  <outline>
    <contour>
      <point x="18" y="560" type="line"/>
      <point x="1298" y="560" type="line"/>
      <point x="1350" y="810" type="line"/>
      <point x="70" y="810" type="line"/>
    </contour>
  </outline>
</glyph>
<glyph name="_part.currencyBar_Manat" format="2">
  <advance width="1432"/>
  <anchor x="970" y="1400" name="_top"/>
  <outline>
    <contour>
      <point x="584" y="160" type="line"/>
      <point x="826" y="160" type="line"/>
      <point x="1090" y="1400" type="line"/>
      <point x="848" y="1400" type="line"/>
    </contour>
  </outline>
</glyph>
<glyph name="_part.currencyVertDiagAdjusted" format="2">
  <advance width="1426"/>
  <guideline x="419" y="331" angle="180"/>
  <anchor x="980" y="1400" name="_top"/>
  <outline>
    <contour>
      <point x="464" y="-160" type="line"/>
      <point x="704" y="-160" type="line"/>
      <point x="1368" y="1560" type="line"/>
      <point x="1124" y="1560" type="line"/>
    </contour>
    <contour>
      <point x="108" y="-160" type="line"/>
      <point x="352" y="-160" type="line"/>
      <point x="540" y="331" type="line"/>
      <point x="297" y="331" type="line"/>
    </contour>
    <contour>
      <point x="602" y="1119" type="line"/>
      <point x="846" y="1119" type="line"/>
      <point x="1015" y="1560" type="line"/>
      <point x="772" y="1560" type="line"/>
    </contour>
  </outline>
</glyph>
<glyph name="_part.cy-desc-lc-reversed" format="2">
  <advance width="1200"/>
  <anchor x="1210" y="0" name="_descender"/>
  <outline>
    <contour>
      <point x="1226" y="-300" type="line"/>
      <point x="1290" y="0" type="line"/>
      <point x="1370" y="0" type="line"/>
      <point x="1438" y="312" type="line"/>
      <point x="994" y="312" type="line"/>
      <point x="862" y="-300" type="line"/>
    </contour>
  </outline>
</glyph>
<glyph name="_part.cy-desc-lc-stem" format="2">
  <advance width="1200"/>
  <anchor x="1188" y="0" name="_descender"/>
  <outline>
    <contour>
      <point x="942" y="-300" type="line"/>
      <point x="1306" y="-300" type="line"/>
      <point x="1438" y="312" type="line"/>
      <point x="1074" y="312" type="line"/>
    </contour>
  </outline>
</glyph>
<glyph name="_part.cy-desc-uc-reversed-stem" format="2">
  <guideline x="-110" y="-175" angle="0"/>
  <guideline x="-14" y="-175" angle="78.047"/>
  <guideline x="-4" y="-175" angle="78.047"/>
  <anchor x="-146" y="0" name="_descender"/>
  <outline>
    <contour>
      <point x="-412" y="-350" type="line"/>
      <point x="-28" y="-350" type="line"/>
      <point x="46" y="-2" type="line"/>
      <point x="70" y="18" type="line"/>
      <point x="144" y="368" type="line"/>
      <point x="-260" y="368" type="line"/>
    </contour>
  </outline>
</glyph>
<glyph name="_part.cy-descender-lc-center" format="2">
  <anchor x="-148" y="0" name="_bottom"/>
  <outline>
    <contour>
      <point x="-394" y="-300" type="line"/>
      <point x="-30" y="-300" type="line"/>
      <point x="80" y="208" type="line"/>
      <point x="-284" y="208" type="line"/>
    </contour>
  </outline>
</glyph>
<glyph name="_part.heng" format="2">
  <advance width="1371"/>
  <anchor x="557" y="1224" name="bar"/>
  <outline>
    <contour>
      <point x="675" y="-332" type="line"/>
      <point x="1041" y="-172"/>
      <point x="1309" y="206"/>
      <point x="1309" y="604" type="curve" smooth="yes"/>
      <point x="1309" y="866"/>
      <point x="1181" y="1070"/>
      <point x="911" y="1070" type="curve" smooth="yes"/>
      <point x="807" y="1070"/>
      <point x="687" y="1018"/>
      <point x="617" y="944" type="curve"/>
      <point x="725" y="1440" type="line"/>
      <point x="325" y="1440" type="line"/>
      <point x="19" y="0" type="line"/>
      <point x="419" y="0" type="line"/>
      <point x="531" y="536" type="line" smooth="yes"/>
      <point x="555" y="652"/>
      <point x="629" y="710"/>
      <point x="721" y="710" type="curve" smooth="yes"/>
      <point x="805" y="710"/>
      <point x="865" y="646"/>
      <point x="865" y="514" type="curve" smooth="yes"/>
      <point x="865" y="318"/>
      <point x="727" y="88"/>
      <point x="533" y="-18" type="curve"/>
    </contour>
  </outline>
</glyph>
<glyph name="_part.hryvnia" format="2">
  <advance width="1296"/>
  <anchor x="798" y="1400" name="top"/>
  <outline>
    <contour>
      <point x="592" y="-32" type="curve" smooth="yes"/>
      <point x="772" y="-32"/>
      <point x="948" y="18"/>
      <point x="1082" y="112" type="curve"/>
      <point x="980" y="364" type="line"/>
      <point x="892" y="286"/>
      <point x="736" y="240"/>
      <point x="622" y="240" type="curve" smooth="yes"/>
      <point x="496" y="240"/>
      <point x="422" y="280"/>
      <point x="422" y="370" type="curve" smooth="yes"/>
      <point x="422" y="478"/>
      <point x="516" y="516"/>
      <point x="628" y="554" type="curve" smooth="yes"/>
      <point x="758" y="598" type="line" smooth="yes"/>
      <point x="1006" y="682"/>
      <point x="1206" y="806"/>
      <point x="1206" y="1052" type="curve" smooth="yes"/>
      <point x="1206" y="1298"/>
      <point x="984" y="1430"/>
      <point x="734" y="1430" type="curve" smooth="yes"/>
      <point x="550" y="1430"/>
      <point x="386" y="1378"/>
      <point x="278" y="1294" type="curve"/>
      <point x="384" y="1050" type="line"/>
      <point x="468" y="1118"/>
      <point x="574" y="1162"/>
      <point x="688" y="1162" type="curve" smooth="yes"/>
      <point x="818" y="1162"/>
      <point x="890" y="1108"/>
      <point x="890" y="1024" type="curve" smooth="yes"/>
      <point x="890" y="928"/>
      <point x="832" y="900"/>
      <point x="686" y="850" type="curve" smooth="yes"/>
      <point x="560" y="806" type="line" smooth="yes"/>
      <point x="302" y="716"/>
      <point x="106" y="620"/>
      <point x="106" y="356" type="curve" smooth="yes"/>
      <point x="106" y="96"/>
      <point x="336" y="-32"/>
    </contour>
  </outline>
</glyph>
<glyph name="_part.hryvniaBase" format="2">
  <advance width="1324"/>
  <anchor x="811" y="1400" name="top"/>
  <outline>
    <contour>
      <point x="609" y="-32" type="curve" smooth="yes"/>
      <point x="823" y="-32"/>
      <point x="1019" y="26"/>
      <point x="1167" y="128" type="curve"/>
      <point x="1035" y="438" type="line"/>
      <point x="943" y="354"/>
      <point x="771" y="302"/>
      <point x="641" y="302" type="curve" smooth="yes"/>
      <point x="513" y="302"/>
      <point x="451" y="330"/>
      <point x="451" y="394" type="curve" smooth="yes"/>
      <point x="451" y="456"/>
      <point x="517" y="484"/>
      <point x="641" y="522" type="curve" smooth="yes"/>
      <point x="779" y="564" type="line" smooth="yes"/>
      <point x="1063" y="650"/>
      <point x="1271" y="786"/>
      <point x="1271" y="1026" type="curve" smooth="yes"/>
      <point x="1271" y="1288"/>
      <point x="1017" y="1430"/>
      <point x="735" y="1430" type="curve" smooth="yes"/>
      <point x="521" y="1430"/>
      <point x="335" y="1374"/>
      <point x="213" y="1282" type="curve"/>
      <point x="349" y="980" type="line"/>
      <point x="439" y="1050"/>
      <point x="549" y="1100"/>
      <point x="681" y="1100" type="curve" smooth="yes"/>
      <point x="815" y="1100"/>
      <point x="875" y="1058"/>
      <point x="875" y="1000" type="curve" smooth="yes"/>
      <point x="875" y="944"/>
      <point x="843" y="928"/>
      <point x="685" y="878" type="curve" smooth="yes"/>
      <point x="557" y="838" type="line" smooth="yes"/>
      <point x="259" y="746"/>
      <point x="55" y="648"/>
      <point x="55" y="384" type="curve" smooth="yes"/>
      <point x="55" y="104"/>
      <point x="321" y="-32"/>
    </contour>
  </outline>
</glyph>
<glyph name="_part.manat" format="2">
  <advance width="1297"/>
  <anchor x="842" y="1400" name="top"/>
  <outline>
    <contour>
      <point x="106" y="0" type="curve"/>
      <point x="420" y="0" type="line"/>
      <point x="406" y="80"/>
      <point x="398" y="162"/>
      <point x="398" y="246" type="curve" smooth="yes"/>
      <point x="398" y="592"/>
      <point x="520" y="926"/>
      <point x="720" y="926" type="curve" smooth="yes"/>
      <point x="836" y="926"/>
      <point x="902" y="840"/>
      <point x="902" y="676" type="curve" smooth="yes"/>
      <point x="902" y="492"/>
      <point x="814" y="178"/>
      <point x="714" y="0" type="curve"/>
      <point x="1044" y="0" type="line"/>
      <point x="1158" y="254"/>
      <point x="1222" y="504"/>
      <point x="1222" y="692" type="curve" smooth="yes"/>
      <point x="1222" y="1042"/>
      <point x="1034" y="1270"/>
      <point x="744" y="1270" type="curve" smooth="yes"/>
      <point x="374" y="1270"/>
      <point x="74" y="860"/>
      <point x="74" y="312" type="curve" smooth="yes"/>
      <point x="74" y="212"/>
      <point x="84" y="108"/>
    </contour>
  </outline>
</glyph>
<glyph name="_part.peso" format="2">
  <advance width="1297"/>
  <outline>
    <contour>
      <point x="102" y="0" type="line"/>
      <point x="466" y="0" type="line"/>
      <point x="564" y="464" type="line"/>
      <point x="748" y="464" type="line" smooth="yes"/>
      <point x="1106" y="464"/>
      <point x="1342" y="654"/>
      <point x="1342" y="994" type="curve" smooth="yes"/>
      <point x="1342" y="1260"/>
      <point x="1154" y="1400"/>
      <point x="916" y="1400" type="curve" smooth="yes"/>
      <point x="398" y="1400" type="line"/>
    </contour>
    <contour>
      <point x="628" y="770" type="line"/>
      <point x="696" y="1084" type="line"/>
      <point x="828" y="1084" type="line" smooth="yes"/>
      <point x="908" y="1084"/>
      <point x="974" y="1054"/>
      <point x="974" y="954" type="curve" smooth="yes"/>
      <point x="974" y="848"/>
      <point x="918" y="770"/>
      <point x="798" y="770" type="curve" smooth="yes"/>
    </contour>
  </outline>
</glyph>
<glyph name="a.ss01" format="2">
  <advance width="1354"/>
  <anchor x="562" y="0" name="bottom"/>
  <anchor x="1114" y="0" name="ogonek"/>
  <anchor x="730" y="1040" name="top"/>
  <outline>
    <contour>
      <point x="504" y="-30" type="curve" smooth="yes"/>
      <point x="676" y="-30"/>
      <point x="804" y="50"/>
      <point x="872" y="180" type="curve"/>
      <point x="836" y="284" type="line"/>
      <point x="776" y="0" type="line"/>
      <point x="1114" y="0" type="line"/>
      <point x="1334" y="1040" type="line"/>
      <point x="996" y="1040" type="line"/>
      <point x="936" y="756" type="line"/>
      <point x="1006" y="820" type="line"/>
      <point x="980" y="972"/>
      <point x="818" y="1070"/>
      <point x="618" y="1070" type="curve" smooth="yes"/>
      <point x="278" y="1070"/>
      <point x="48" y="774"/>
      <point x="48" y="432" type="curve" smooth="yes"/>
      <point x="48" y="146"/>
      <point x="238" y="-30"/>
    </contour>
    <contour>
      <point x="614" y="310" type="curve" smooth="yes"/>
      <point x="514" y="310"/>
      <point x="440" y="378"/>
      <point x="440" y="488" type="curve" smooth="yes"/>
      <point x="440" y="638"/>
      <point x="546" y="730"/>
      <point x="658" y="730" type="curve" smooth="yes"/>
      <point x="758" y="730"/>
      <point x="832" y="660"/>
      <point x="832" y="550" type="curve" smooth="yes"/>
      <point x="832" y="398"/>
      <point x="726" y="310"/>
    </contour>
  </outline>
</glyph>
<glyph name="acutecomb.narrow" format="2">
  <anchor x="-680" y="1040" name="_top"/>
  <outline>
    <contour>
      <point x="-854" y="1170" type="line"/>
      <point x="-486" y="1170" type="line"/>
      <point x="-204" y="1544" type="line"/>
      <point x="-610" y="1544" type="line"/>
    </contour>
  </outline>
</glyph>
<glyph name="brevecomb.case" format="2">
  <anchor x="-828" y="1400" name="_top"/>
  <anchor x="-742" y="1814" name="top"/>
  <outline>
    <contour>
      <point x="-756" y="1498" type="curve" smooth="yes"/>
      <point x="-500" y="1498"/>
      <point x="-300" y="1638"/>
      <point x="-282" y="1862" type="curve"/>
      <point x="-618" y="1862" type="line"/>
      <point x="-622" y="1800"/>
      <point x="-672" y="1756"/>
      <point x="-746" y="1756" type="curve" smooth="yes"/>
      <point x="-826" y="1756"/>
      <point x="-866" y="1810"/>
      <point x="-852" y="1862" type="curve"/>
      <point x="-1190" y="1862" type="line"/>
      <point x="-1216" y="1648"/>
      <point x="-1038" y="1498"/>
    </contour>
  </outline>
</glyph>
<glyph name="breveinvertedcomb.narrow" format="2">
  <anchor x="-674" y="1040" name="_top"/>
  <outline>
    <contour>
      <point x="-1042" y="1170" type="curve"/>
      <point x="-724" y="1170" type="line"/>
      <point x="-718" y="1252"/>
      <point x="-680" y="1304"/>
      <point x="-632" y="1304" type="curve" smooth="yes"/>
      <point x="-570" y="1304"/>
      <point x="-556" y="1248"/>
      <point x="-566" y="1170" type="curve"/>
      <point x="-246" y="1170" type="line"/>
      <point x="-216" y="1392"/>
      <point x="-362" y="1554"/>
      <point x="-612" y="1554" type="curve" smooth="yes"/>
      <point x="-846" y="1554"/>
      <point x="-1016" y="1404"/>
    </contour>
  </outline>
</glyph>
<glyph name="caroncomb.alt" format="2">
  <anchor x="-133" y="1440" name="_caron"/>
  <outline>
    <contour>
      <point x="-135" y="1092" type="line"/>
      <point x="133" y="1092" type="line"/>
      <point x="289" y="1440" type="line"/>
      <point x="-63" y="1440" type="line"/>
    </contour>
  </outline>
</glyph>
<glyph name="caroncomb.alt_case" format="2">
  <anchor x="-394" y="1440" name="_caron"/>
  <outline>
    <contour>
      <point x="-360" y="1080" type="line"/>
      <point x="-62" y="1080" type="line"/>
      <point x="102" y="1440" type="line"/>
      <point x="-284" y="1440" type="line"/>
    </contour>
  </outline>
</glyph>
<glyph name="circumflexcomb.narrow" format="2">
  <anchor x="-674" y="1040" name="_top"/>
  <anchor x="-582" y="1484" name="top"/>
  <anchor x="-152" y="1384" name="top_right"/>
  <outline>
    <contour>
      <point x="-1100" y="1170" type="line"/>
      <point x="-726" y="1170" type="line"/>
      <point x="-614" y="1326" type="line"/>
      <point x="-566" y="1170" type="line"/>
      <point x="-218" y="1170" type="line"/>
      <point x="-402" y="1544" type="line"/>
      <point x="-736" y="1544" type="line"/>
    </contour>
  </outline>
</glyph>
<glyph name="commaturnedabovecomb.case" format="2">
  <anchor x="-858" y="1400" name="_top"/>
  <outline>
    <contour>
      <point x="-798" y="1500" type="curve" smooth="yes"/>
      <point x="-670" y="1500"/>
      <point x="-560" y="1586"/>
      <point x="-560" y="1700" type="curve" smooth="yes"/>
      <point x="-560" y="1774"/>
      <point x="-620" y="1840"/>
      <point x="-700" y="1870" type="curve"/>
      <point x="-642" y="1912"/>
      <point x="-550" y="1956"/>
      <point x="-476" y="1972" type="curve"/>
      <point x="-586" y="2106" type="line"/>
      <point x="-816" y="2018"/>
      <point x="-1010" y="1872"/>
      <point x="-1010" y="1686" type="curve" smooth="yes"/>
      <point x="-1010" y="1574"/>
      <point x="-926" y="1500"/>
    </contour>
  </outline>
</glyph>
<glyph name="dblgravecomb.narrow" format="2">
  <anchor x="-654" y="1040" name="_top"/>
  <outline>
    <contour>
      <point x="-542" y="1170" type="line"/>
      <point x="-194" y="1170" type="line"/>
      <point x="-278" y="1544" type="line"/>
      <point x="-658" y="1544" type="line"/>
    </contour>
    <contour>
      <point x="-1018" y="1170" type="line"/>
      <point x="-670" y="1170" type="line"/>
      <point x="-750" y="1544" type="line"/>
      <point x="-1132" y="1544" type="line"/>
    </contour>
  </outline>
</glyph>
<glyph name="dotaccentcomb.case" format="2">
  <anchor x="-648" y="1400" name="_top"/>
  <anchor x="-560" y="1834" name="top"/>
  <outline>
    <contour>
      <point x="-590" y="1514" type="curve" smooth="yes"/>
      <point x="-448" y="1514"/>
      <point x="-336" y="1612"/>
      <point x="-336" y="1748" type="curve" smooth="yes"/>
      <point x="-336" y="1876"/>
      <point x="-438" y="1948"/>
      <point x="-566" y="1948" type="curve" smooth="yes"/>
      <point x="-702" y="1948"/>
      <point x="-820" y="1856"/>
      <point x="-820" y="1712" type="curve" smooth="yes"/>
      <point x="-820" y="1584"/>
      <point x="-714" y="1514"/>
    </contour>
  </outline>
</glyph>
<glyph name="four.numr" format="2">
  <advance width="846"/>
  <outline>
    <contour>
      <point x="466" y="490" type="line"/>
      <point x="680" y="490" type="line"/>
      <point x="714" y="650" type="line"/>
      <point x="832" y="650" type="line"/>
      <point x="874" y="856" type="line"/>
      <point x="756" y="856" type="line"/>
      <point x="790" y="1018" type="line"/>
      <point x="578" y="1018" type="line"/>
      <point x="542" y="856" type="line"/>
      <point x="386" y="856" type="line"/>
      <point x="754" y="1400" type="line"/>
      <point x="488" y="1400" type="line"/>
      <point x="104" y="830" type="line"/>
      <point x="66" y="650" type="line"/>
      <point x="500" y="650" type="line"/>
    </contour>
  </outline>
</glyph>
<glyph name="hardsign-cy.loclBGR" format="2">
  <advance width="1383"/>
  <outline>
    <contour>
      <point x="789" y="-20" type="curve" smooth="yes"/>
      <point x="1073" y="-20"/>
      <point x="1313" y="168"/>
      <point x="1313" y="414" type="curve" smooth="yes"/>
      <point x="1313" y="628"/>
      <point x="1139" y="776"/>
      <point x="883" y="776" type="curve" smooth="yes"/>
      <point x="787" y="776"/>
      <point x="695" y="760"/>
      <point x="567" y="674" type="curve"/>
      <point x="723" y="590" type="line"/>
      <point x="819" y="1040" type="line"/>
      <point x="419" y="1040" type="line"/>
      <point x="305" y="500" type="line" smooth="yes"/>
      <point x="229" y="144"/>
      <point x="469" y="-20"/>
    </contour>
    <contour>
      <point x="795" y="268" type="curve" smooth="yes"/>
      <point x="723" y="268"/>
      <point x="661" y="312"/>
      <point x="661" y="374" type="curve" smooth="yes"/>
      <point x="661" y="446"/>
      <point x="725" y="486"/>
      <point x="805" y="486" type="curve" smooth="yes"/>
      <point x="883" y="486"/>
      <point x="945" y="446"/>
      <point x="945" y="386" type="curve" smooth="yes"/>
      <point x="945" y="304"/>
      <point x="877" y="268"/>
    </contour>
    <contour>
      <point x="77" y="690" type="line"/>
      <point x="345" y="690" type="line"/>
      <point x="819" y="1040" type="line"/>
      <point x="151" y="1040" type="line"/>
    </contour>
  </outline>
</glyph>
<glyph name="hookabovecomb.case" format="2">
  <anchor x="-832" y="1400" name="_top"/>
  <outline>
    <contour>
      <point x="-926" y="1508" type="curve"/>
      <point x="-680" y="1508" type="line"/>
      <point x="-692" y="1544"/>
      <point x="-670" y="1558"/>
      <point x="-602" y="1586" type="curve" smooth="yes"/>
      <point x="-508" y="1624"/>
      <point x="-452" y="1678"/>
      <point x="-452" y="1764" type="curve" smooth="yes"/>
      <point x="-452" y="1872"/>
      <point x="-568" y="1940"/>
      <point x="-762" y="1940" type="curve" smooth="yes"/>
      <point x="-852" y="1940"/>
      <point x="-950" y="1924"/>
      <point x="-1020" y="1894" type="curve"/>
      <point x="-1002" y="1702" type="line"/>
      <point x="-960" y="1716"/>
      <point x="-920" y="1726"/>
      <point x="-870" y="1726" type="curve" smooth="yes"/>
      <point x="-816" y="1726"/>
      <point x="-780" y="1720"/>
      <point x="-780" y="1708" type="curve" smooth="yes"/>
      <point x="-780" y="1688"/>
      <point x="-802" y="1682"/>
      <point x="-844" y="1672" type="curve" smooth="yes"/>
      <point x="-940" y="1650"/>
      <point x="-972" y="1598"/>
    </contour>
  </outline>
</glyph>
<glyph name="horncomb.alt_case" format="2">
  <anchor x="-205" y="1400" name="_horn"/>
  <outline>
    <contour>
      <point x="-139" y="1036" type="curve" smooth="yes"/>
      <point x="63" y="1036"/>
      <point x="211" y="1186"/>
      <point x="211" y="1374" type="curve" smooth="yes"/>
      <point x="211" y="1466"/>
      <point x="179" y="1568"/>
      <point x="109" y="1652" type="curve"/>
      <point x="-133" y="1528" type="line"/>
      <point x="-99" y="1472"/>
      <point x="-85" y="1426"/>
      <point x="-85" y="1386" type="curve" smooth="yes"/>
      <point x="-85" y="1316"/>
      <point x="-125" y="1270"/>
      <point x="-191" y="1270" type="curve" smooth="yes"/>
      <point x="-241" y="1270"/>
      <point x="-303" y="1300"/>
      <point x="-381" y="1336" type="curve"/>
      <point x="-427" y="1110" type="line"/>
      <point x="-329" y="1070"/>
      <point x="-235" y="1036"/>
    </contour>
  </outline>
</glyph>
<glyph name="horncomb.case" format="2">
  <anchor x="-288" y="1400" name="_horn"/>
  <outline>
    <contour>
      <point x="-132" y="1066" type="curve" smooth="yes"/>
      <point x="66" y="1066"/>
      <point x="214" y="1202"/>
      <point x="214" y="1378" type="curve" smooth="yes"/>
      <point x="214" y="1466"/>
      <point x="178" y="1568"/>
      <point x="102" y="1648" type="curve"/>
      <point x="-140" y="1526" type="line"/>
      <point x="-100" y="1474"/>
      <point x="-82" y="1428"/>
      <point x="-82" y="1390" type="curve" smooth="yes"/>
      <point x="-82" y="1326"/>
      <point x="-128" y="1296"/>
      <point x="-192" y="1300" type="curve" smooth="yes"/>
      <point x="-306" y="1307"/>
      <point x="-434" y="1430"/>
      <point x="-738" y="1430" type="curve"/>
      <point x="-784" y="1216" type="line"/>
      <point x="-538" y="1210"/>
      <point x="-350" y="1066"/>
    </contour>
  </outline>
</glyph>
<glyph name="hungarumlautcomb.case" format="2">
  <anchor x="-830" y="1400" name="_top"/>
  <outline>
    <contour>
      <point x="-732" y="1508" type="line"/>
      <point x="-344" y="1508" type="line"/>
      <point x="-42" y="1862" type="line"/>
      <point x="-470" y="1862" type="line"/>
    </contour>
    <contour>
      <point x="-1292" y="1508" type="line"/>
      <point x="-904" y="1508" type="line"/>
      <point x="-602" y="1862" type="line"/>
      <point x="-1030" y="1862" type="line"/>
    </contour>
  </outline>
</glyph>
<glyph name="nine.ss02" format="2">
  <advance width="1261"/>
  <outline>
    <contour>
      <point x="166" y="0" type="line"/>
      <point x="594" y="0" type="line"/>
      <point x="954" y="400" type="line" smooth="yes"/>
      <point x="1104" y="568"/>
      <point x="1276" y="754"/>
      <point x="1276" y="982" type="curve" smooth="yes"/>
      <point x="1276" y="1232"/>
      <point x="1078" y="1430"/>
      <point x="774" y="1430" type="curve" smooth="yes"/>
      <point x="454" y="1430"/>
      <point x="170" y="1200"/>
      <point x="170" y="888" type="curve" smooth="yes"/>
      <point x="170" y="642"/>
      <point x="356" y="484"/>
      <point x="626" y="484" type="curve" smooth="yes"/>
      <point x="668" y="484"/>
      <point x="712" y="488"/>
      <point x="758" y="496" type="curve"/>
      <point x="732" y="616" type="line"/>
    </contour>
    <contour>
      <point x="708" y="756" type="curve" smooth="yes"/>
      <point x="612" y="756"/>
      <point x="544" y="808"/>
      <point x="544" y="910" type="curve" smooth="yes"/>
      <point x="544" y="1044"/>
      <point x="642" y="1118"/>
      <point x="742" y="1118" type="curve" smooth="yes"/>
      <point x="834" y="1118"/>
      <point x="906" y="1064"/>
      <point x="906" y="962" type="curve" smooth="yes"/>
      <point x="906" y="846"/>
      <point x="822" y="756"/>
    </contour>
  </outline>
</glyph>
<glyph name="one.dnom" format="2">
  <advance width="698"/>
  <outline>
    <contour>
      <point x="228" y="0" type="line"/>
      <point x="468" y="0" type="line"/>
      <point x="664" y="930" type="line"/>
      <point x="646" y="930" type="line"/>
      <point x="90" y="758" type="line"/>
      <point x="152" y="558" type="line"/>
      <point x="362" y="618" type="line"/>
    </contour>
  </outline>
</glyph>
<glyph name="one.tnum" format="2">
  <advance width="1297"/>
  <outline>
    <contour>
      <point x="78" y="0" type="line"/>
      <point x="1182" y="0" type="line"/>
      <point x="1258" y="358" type="line"/>
      <point x="912" y="358" type="line"/>
      <point x="1140" y="1430" type="line"/>
      <point x="1112" y="1430" type="line"/>
      <point x="270" y="1166" type="line"/>
      <point x="364" y="858" type="line"/>
      <point x="672" y="952" type="line"/>
      <point x="544" y="358" type="line"/>
      <point x="154" y="358" type="line"/>
    </contour>
  </outline>
</glyph>
<glyph name="ringcomb.case" format="2">
  <anchor x="-918" y="1400" name="_top"/>
  <anchor x="-778" y="2056" name="top"/>
  <outline>
    <contour>
      <point x="-864" y="1476" type="curve" smooth="yes"/>
      <point x="-668" y="1476"/>
      <point x="-490" y="1624"/>
      <point x="-490" y="1824" type="curve" smooth="yes"/>
      <point x="-490" y="1988"/>
      <point x="-620" y="2112"/>
      <point x="-804" y="2112" type="curve" smooth="yes"/>
      <point x="-1004" y="2112"/>
      <point x="-1178" y="1962"/>
      <point x="-1178" y="1762" type="curve" smooth="yes"/>
      <point x="-1178" y="1596"/>
      <point x="-1048" y="1476"/>
    </contour>
    <contour>
      <point x="-848" y="1686" type="curve" smooth="yes"/>
      <point x="-908" y="1686"/>
      <point x="-944" y="1724"/>
      <point x="-944" y="1778" type="curve" smooth="yes"/>
      <point x="-944" y="1852"/>
      <point x="-890" y="1902"/>
      <point x="-820" y="1902" type="curve" smooth="yes"/>
      <point x="-760" y="1902"/>
      <point x="-724" y="1864"/>
      <point x="-724" y="1810" type="curve" smooth="yes"/>
      <point x="-724" y="1736"/>
      <point x="-776" y="1686"/>
    </contour>
  </outline>
</glyph>
<glyph name="sha-cy.loclBGR" format="2">
  <advance width="2008"/>
  <guideline x="555" y="520" angle="0"/>
  <anchor x="1768" y="0" name="descender"/>
  <anchor x="1110" y="1040" name="top"/>
  <outline>
    <contour>
      <point x="402" y="-30" type="curve" smooth="yes"/>
      <point x="562" y="-30"/>
      <point x="712" y="36"/>
      <point x="792" y="170" type="curve"/>
      <point x="808" y="50"/>
      <point x="914" y="-30"/>
      <point x="1060" y="-30" type="curve" smooth="yes"/>
      <point x="1192" y="-30"/>
      <point x="1342" y="44"/>
      <point x="1406" y="178" type="curve"/>
      <point x="1368" y="0" type="line"/>
      <point x="1768" y="0" type="line"/>
      <point x="1990" y="1040" type="line"/>
      <point x="1590" y="1040" type="line"/>
      <point x="1466" y="454" type="line" smooth="yes"/>
      <point x="1450" y="378"/>
      <point x="1378" y="330"/>
      <point x="1302" y="330" type="curve" smooth="yes"/>
      <point x="1208" y="330"/>
      <point x="1174" y="384"/>
      <point x="1194" y="492" type="curve" smooth="yes"/>
      <point x="1310" y="1040" type="line"/>
      <point x="910" y="1040" type="line"/>
      <point x="786" y="454" type="line" smooth="yes"/>
      <point x="770" y="378"/>
      <point x="698" y="330"/>
      <point x="622" y="330" type="curve" smooth="yes"/>
      <point x="528" y="330"/>
      <point x="494" y="384"/>
      <point x="514" y="492" type="curve" smooth="yes"/>
      <point x="630" y="1040" type="line"/>
      <point x="230" y="1040" type="line"/>
      <point x="90" y="378" type="line" smooth="yes"/>
      <point x="34" y="114"/>
      <point x="162" y="-30"/>
    </contour>
  </outline>
</glyph>
<glyph name="softsign-cy.loclBGR" format="2">
  <advance width="1195"/>
  <guideline x="-87" y="-82" angle="0"/>
  <outline>
    <contour>
      <point x="590" y="-20" type="curve" smooth="yes"/>
      <point x="874" y="-20"/>
      <point x="1114" y="168"/>
      <point x="1114" y="414" type="curve" smooth="yes"/>
      <point x="1114" y="628"/>
      <point x="940" y="776"/>
      <point x="684" y="776" type="curve" smooth="yes"/>
      <point x="588" y="776"/>
      <point x="496" y="760"/>
      <point x="368" y="674" type="curve"/>
      <point x="524" y="590" type="line"/>
      <point x="620" y="1040" type="line"/>
      <point x="220" y="1040" type="line"/>
      <point x="106" y="500" type="line" smooth="yes"/>
      <point x="30" y="144"/>
      <point x="270" y="-20"/>
    </contour>
    <contour>
      <point x="596" y="268" type="curve" smooth="yes"/>
      <point x="524" y="268"/>
      <point x="462" y="312"/>
      <point x="462" y="374" type="curve" smooth="yes"/>
      <point x="462" y="446"/>
      <point x="526" y="486"/>
      <point x="606" y="486" type="curve" smooth="yes"/>
      <point x="684" y="486"/>
      <point x="746" y="446"/>
      <point x="746" y="386" type="curve" smooth="yes"/>
      <point x="746" y="304"/>
      <point x="678" y="268"/>
    </contour>
  </outline>
</glyph>
<glyph name="tonos.case" format="2">
  <anchor x="-1398" y="1400" name="_topleft"/>
  <outline>
    <contour>
      <point x="-1916" y="1040" type="line"/>
      <point x="-1596" y="1040" type="line"/>
      <point x="-1382" y="1470" type="line"/>
      <point x="-1738" y="1470" type="line"/>
    </contour>
  </outline>
</glyph>
<glyph name="two.numr" format="2">
  <advance width="858"/>
  <outline>
    <contour>
      <point x="88" y="490" type="line"/>
      <point x="776" y="490" type="line"/>
      <point x="820" y="702" type="line"/>
      <point x="488" y="702" type="line"/>
      <point x="562" y="758" type="line" smooth="yes"/>
      <point x="750" y="900"/>
      <point x="882" y="1006"/>
      <point x="882" y="1164" type="curve" smooth="yes"/>
      <point x="882" y="1314"/>
      <point x="760" y="1420"/>
      <point x="552" y="1420" type="curve" smooth="yes"/>
      <point x="443" y="1420"/>
      <point x="325" y="1383"/>
      <point x="231" y="1317" type="curve"/>
      <point x="282" y="1118" type="line"/>
      <point x="354" y="1178"/>
      <point x="432" y="1202"/>
      <point x="504" y="1202" type="curve" smooth="yes"/>
      <point x="588" y="1202"/>
      <point x="634" y="1172"/>
      <point x="634" y="1118" type="curve" smooth="yes"/>
      <point x="634" y="1016"/>
      <point x="520" y="946"/>
      <point x="366" y="834" type="curve" smooth="yes"/>
      <point x="122" y="658" type="line"/>
    </contour>
  </outline>
</glyph>
<glyph name="ze-cy.loclBGR" format="2">
  <advance width="1183"/>
  <anchor x="322" y="-420" name="bottom"/>
  <anchor x="638" y="1040" name="top"/>
  <outline>
    <contour>
      <point x="434" y="-450" type="curve" smooth="yes"/>
      <point x="722" y="-450"/>
      <point x="984" y="-270"/>
      <point x="984" y="0" type="curve" smooth="yes"/>
      <point x="984" y="158"/>
      <point x="914" y="260"/>
      <point x="788" y="346" type="curve"/>
      <point x="952" y="402"/>
      <point x="1086" y="548"/>
      <point x="1086" y="728" type="curve" smooth="yes"/>
      <point x="1086" y="968"/>
      <point x="858" y="1080"/>
      <point x="612" y="1080" type="curve" smooth="yes"/>
      <point x="418" y="1080"/>
      <point x="230" y="1026"/>
      <point x="80" y="924" type="curve"/>
      <point x="186" y="638" type="line"/>
      <point x="256" y="702"/>
      <point x="376" y="740"/>
      <point x="482" y="740" type="curve" smooth="yes"/>
      <point x="610" y="740"/>
      <point x="676" y="696"/>
      <point x="676" y="620" type="curve" smooth="yes"/>
      <point x="676" y="524"/>
      <point x="592" y="478"/>
      <point x="458" y="484" type="curve" smooth="yes"/>
      <point x="244" y="484" type="line"/>
      <point x="178" y="172" type="line"/>
      <point x="404" y="172" type="line" smooth="yes"/>
      <point x="540" y="172"/>
      <point x="598" y="118"/>
      <point x="598" y="42" type="curve" smooth="yes"/>
      <point x="598" y="-56"/>
      <point x="510" y="-112"/>
      <point x="388" y="-112" type="curve" smooth="yes"/>
      <point x="256" y="-112"/>
      <point x="122" y="-54"/>
      <point x="44" y="30" type="curve"/>
      <point x="-160" y="-248" type="line"/>
      <point x="-14" y="-386"/>
      <point x="196" y="-450"/>
    </contour>
  </outline>
</glyph>
